<svg version="1.2" xmlns="http://www.w3.org/2000/svg" viewBox="0 0 4460 1088" width="4460" height="1088">
	<style>
		.s0 { fill: #000000 } 
		.s1 { fill: #c39231 } 
		.s2 { fill: #27241d } 
		.s3 { fill: #c41718 } 
		.s4 { fill: #ffffff } 
	</style>
	<path fill-rule="evenodd" class="s0" d="m43.87 943.67c0 57.47 23.94 102.07 70.35 102.07 23.93 0 41.52-6.34 54.39-17.58l1.45 3.26-4.71 14.32c-14.33 11.24-36.81 19.22-60.74 19.22-59.1 0-102.25-44.78-102.25-118.21 0-73.42 49.49-118.02 106.96-118.02 28.83 0 49.68 4.71 62.37 12.69l1.63 1.63c-3.26 12.87-4.71 30.28-4.71 49.49l-1.63 1.64h-6.35l-1.63-1.64c0-12.69-1.63-19.21-1.63-23.93-1.63-7.98-17.59-23.93-46.41-23.93-39.89 1.63-67.09 33.54-67.09 98.99zm254.19 38.26h-6.53l-1.45-1.64v-9.61c-1.63-9.42-1.63-11.05-4.89-14.32-4.72-3.08-19.22-4.71-35.18-4.71h-4.71v33.54c0 22.3 0 36.62 1.63 58.92h17.59c25.56 0 43.15-3.08 49.49-9.61 4.72-3.08 6.35-15.95 9.61-30.27l1.63-1.64h6.35l1.63 1.64c-1.63 11.24-3.26 43.14-3.26 55.84l-1.63 1.63c-15.96-1.63-73.43-1.63-108.6-1.63-6.53 0-14.51 0-22.48 1.63l-1.46-1.63v-4.72l1.46-1.63c4.89-1.63 7.97-4.71 9.6-4.71 1.64-1.64 3.27-25.57 3.27-62.37v-73.43c0-47.86 0-55.84-3.27-60.55-1.63-1.63-4.71-3.27-15.95-4.72l-1.63-1.63v-7.98l1.63-1.63c12.87 1.63 33.54 1.63 36.8 1.63 25.57 0 68.72 0 87.93-1.63v1.63c-1.63 9.61-1.63 25.57-1.63 47.87v1.63h-6.34l-1.63-1.63c0-11.24-3.27-22.3-3.27-25.57-1.63-3.26-4.71-6.34-14.32-6.34-9.61-1.63-20.85-1.63-38.44-1.63h-3.08v87.75h6.35c20.67 0 28.82 0 33.54-4.72 1.63-1.63 3.26-3.26 4.71-12.87l1.63-9.61 1.64-1.45h6.34l1.63 1.45c0 11.24 0 23.93 0 35.17-3.08 6.35-3.08 15.96-4.71 33.55zm162.99 20.66l-84.67-126v102.07c0 43.15 1.63 62.37 4.71 67.08 1.64 1.63 6.35 4.72 17.59 6.35l1.63 1.63v7.98l-1.63 1.63c-7.98-1.63-22.3-1.63-30.28-1.63-3.26 0-12.87 0-25.56 1.63l-1.63-1.63v-7.98l1.63-1.63c11.06-1.63 14.32-3.08 15.95-6.35q4.72-7.25 4.72-67.08v-98.81c0-12.87 0-25.56-3.08-30.46-1.64-1.45-4.9-3.08-16.14-4.71l-1.45-1.63v-7.98l1.45-1.63c6.53 1.63 32.09 1.63 35.17 1.63 6.53 0 14.51 0 19.22 0l86.3 132.53c7.98 11.06 11.24 17.59 17.59 28.65v-78.14c0-46.23-1.64-62.19-4.72-67.08-1.63-1.64-6.52-4.72-19.22-6.35l-1.63-1.63v-7.98l1.63-1.63c7.98 1.63 22.3 1.63 28.83 1.63 3.08 0 12.69 0 27.01-1.63l1.64 1.63v7.98l-1.64 1.63c-11.05 1.63-14.32 3.26-15.95 6.35-3.08 4.89-4.71 23.93-4.71 67.08v98.99c0 14.32 0 33.36 1.63 42.97 0 0 0 0-1.63 1.63q-7.26 0-19.22 0c-7.98-15.96-20.85-38.26-33.54-59.11zm147.03-110.05c0-12.69 0-33.54-1.63-41.51h-12.69c-11.24 0-30.46 0-35.17 6.34-1.63 1.63-4.9 11.24-6.53 28.83l-1.45 1.63h-6.53l-1.45-1.63c0-25.57 0-43.15-1.63-51.13l1.63-1.63c14.33 1.63 47.87 1.63 83.04 1.63 36.8 0 65.45 0 79.95-1.63l1.63 1.63c0 9.61-1.63 25.56-1.63 51.13l-1.63 1.63h-6.34l-1.64-1.63c-1.63-19.22-4.89-27.2-6.34-30.28-4.9-4.89-17.59-6.53-30.46-6.53h-12.69c0 7.98-1.63 28.83-1.63 41.52v92.65c0 47.86 0 55.84 3.08 60.55 1.63 1.63 4.89 3.26 16.13 4.9l1.46 1.45v7.97l-1.46 1.64c-12.87-1.64-33.72-1.64-36.8-1.64-3.26 0-25.56 0-40.07 1.64l-1.45-1.64v-7.97l1.45-1.45c11.24-1.64 14.51-3.27 16.14-4.9 3.08-4.71 3.08-12.69 3.08-60.55v-91.02zm2719.51 0c0-12.69 0-33.54-1.63-41.51h-12.69c-11.24 0-30.46 0-35.17 6.34-1.63 1.63-4.9 11.24-6.53 28.83l-1.45 1.63h-6.53l-1.45-1.63c0-25.57 0-43.15-1.63-51.13l1.63-1.63c14.33 1.63 47.87 1.63 83.04 1.63 36.8 0 65.45 0 79.95-1.63l1.63 1.63c0 9.61-1.63 25.56-1.63 51.13l-1.63 1.63h-6.34l-1.64-1.63c-1.63-19.22-4.89-27.2-6.34-30.28-4.9-4.89-17.59-6.53-30.46-6.53h-12.69c0 7.98-1.63 28.83-1.63 41.52v92.65c0 47.86 0 55.84 3.08 60.55 1.63 1.63 4.89 3.26 16.14 4.9l1.45 1.45v7.97l-1.45 1.64c-12.88-1.64-33.73-1.64-36.81-1.64-3.26 0-25.56 0-40.07 1.64l-1.45-1.64v-7.97l1.45-1.45c11.24-1.64 14.51-3.27 16.14-4.9 3.08-4.71 3.08-12.69 3.08-60.55v-91.02zm-2550.18 92.65c0 49.31 0 55.84 3.27 62.18 1.63 1.64 6.34 3.09 17.58 4.72l1.64 1.63v7.98l-1.64 1.63c-14.32-1.63-35.17-1.63-39.88-1.63-3.27 0-24.12 0-36.81 1.63l-1.63-1.63v-7.98l1.63-1.63c11.24-1.63 14.33-3.08 15.96-4.72 3.26-6.34 3.26-12.87 3.26-60.73v-73.43c0-47.86 0-55.84-3.26-60.55-1.63-1.63-4.72-3.27-15.96-4.72l-1.63-1.63v-7.98l1.63-1.63c12.69 1.63 33.54 1.63 36.81 1.63 11.06 0 39.88-1.63 52.76-1.63 33.54 0 59.1 7.98 59.1 49.5 0 30.28-12.87 47.86-40.07 57.47 3.27 6.35 7.98 14.32 14.51 27.01l15.95 27.2c14.32 25.56 25.56 44.6 31.91 51.13 3.26 3.08 6.35 3.08 12.87 3.08l1.45 1.63v7.98l-1.45 1.63c-6.52-1.63-17.58-1.63-24.11-1.63-4.71 0-19.04 0-28.65 1.63-4.89-9.61-11.24-22.3-23.93-46.23-14.5-28.83-30.46-55.84-36.8-68.72v-3.26c7.98-1.45 14.32-1.45 23.93-6.34 12.87-6.35 17.59-19.04 17.59-46.24 0-25.56-7.98-43.15-31.91-43.15-6.53 0-12.87 0-20.85 1.64 0 6.34-1.63 28.82-1.63 62.18v71.98zm115.12 74.88v-7.98l1.63-1.63c6.35-1.45 11.24-1.45 14.33-6.35q4.89-4.71 9.61-19.04l52.75-132.53c7.98-20.66 15.96-41.51 23.94-60.55h9.6l52.76 161.18c12.88 42.96 17.59 50.94 19.22 54.2 3.26 3.09 9.61 4.72 14.32 4.72l1.64 1.63v7.98l-1.64 1.63c-9.6-1.63-33.54-1.63-39.88-1.63-14.32 0-30.46 1.63-38.44 1.63l-1.45-1.63v-7.98l1.45-1.63c9.61 0 11.24 0 14.51-1.63 3.08-1.45 3.08-3.09 3.08-6.35 0-3.08 0-9.61-4.72-23.93l-12.87-39.89h-59.1l-11.24 31.91c-6.35 17.59-7.98 27.2-7.98 30.28 0 6.53 4.9 9.61 17.59 9.61l1.63 1.63v7.98l-1.63 1.63c-11.06-1.63-23.94-1.63-31.91-1.63-9.61-1.63-19.22-1.63-27.2-1.63zm64-97.36h51.13l-23.93-73.43zm180.57 97.36c-6.34 0-22.3 0-30.46 1.63l-1.45-1.63v-4.71l1.45-1.64c4.9-1.63 9.61-4.71 9.61-4.71 1.63-1.63 3.27-25.56 3.27-62.37v-73.42c0-47.87 0-55.85-3.27-60.56-1.45-1.63-4.71-3.26-15.95-4.71l-1.63-1.63v-7.98l1.63-1.63c12.87 1.63 36.8 1.63 40.07 1.63 3.08 0 23.93 0 36.62-1.63l1.63 1.63v7.98l-1.63 1.63c-11.06 1.45-14.32 3.08-15.96 4.71-3.08 4.71-3.08 12.69-3.08 60.56v70.34c0 17.59 0 41.52 1.45 62.19h6.53q47.86 0 57.47-9.61c3.26-3.08 7.98-22.3 9.61-33.54l1.63-1.45h6.35l1.63 1.45c-1.63 11.24-3.26 46.41-3.26 59.1l-1.64 1.63c-15.95-1.63-38.25 0-63.81-1.63zm194.89-148.3c0-47.87 0-55.84-3.08-60.74-1.63-1.63-4.89-3.08-15.95-4.71l-1.63-1.63v-7.98l1.63-1.63c14.32 1.63 41.52 1.63 44.78 1.63 11.06 0 33.54-1.63 47.86-1.63 25.57 0 47.87 7.97 47.87 44.78 0 28.64-23.94 49.49-47.87 54.21 27.2 3.26 56.02 11.24 56.02 52.57 0 47.87-35.17 75.06-68.89 75.06-9.43 0-41.52-1.63-43.15-1.63-6.34 0-22.3 0-30.28 1.63l-1.63-1.63v-4.71l1.63-1.63c4.72-1.64 7.98-4.72 9.61-6.35 1.63-1.63 3.08-25.56 3.08-62.19zm36.81 17.41c4.89 0 9.61 0 15.95 0 24.12 0 32.09-17.41 32.09-44.6 0-23.93-11.24-36.81-25.56-36.81-7.98 0-14.5 0-20.85 1.64-1.63 9.6-1.63 25.56-1.63 49.49zm0 116.58c3.26 1.45 9.61 1.45 15.95 1.45 28.83 0 38.44-23.93 38.44-55.84 0-38.26-20.85-49.32-39.89-49.32-3.26 0-9.61 0-14.5 0zm97.54 14.33v-7.98l1.63-1.63c6.35-1.45 11.24-1.45 14.32-6.35q4.9-4.71 9.61-19.03l52.76-132.54c7.98-20.66 15.95-41.51 23.93-60.55h9.61l52.76 161.18c12.87 42.96 17.59 50.94 19.22 54.21 3.08 3.08 9.61 4.71 14.32 4.71l1.63 1.63v7.98l-1.63 1.63c-9.61-1.63-33.54-1.63-39.89-1.63-14.5 0-30.45 1.63-38.43 1.63l-1.63-1.63v-7.98l1.63-1.63c9.61 0 11.24 0 14.5-1.63 3.08-1.45 3.08-3.08 3.08-6.35 0-3.08-1.63-9.61-4.71-23.93l-12.87-39.89h-60.74l-11.24 31.91c-6.34 17.59-7.98 27.2-7.98 30.28 0 6.53 4.9 9.61 17.59 9.61l1.63 1.63v7.98l-1.63 1.63c-11.06-1.63-23.93-1.63-31.91-1.63-7.98-1.63-17.58-1.63-25.56-1.63zm64-97.36h51.12l-24.11-73.43zm260.53 39.89l-84.85-126.01v102.08c0 43.14 1.63 62.36 4.9 67.08 1.63 1.63 6.34 4.71 17.58 6.34l1.63 1.63v7.98l-1.63 1.63c-7.97-1.63-22.48-1.63-30.46-1.63-3.08 0-12.69 0-25.56 1.63l-1.63-1.63v-7.98l1.63-1.63c11.24-1.63 12.87-3.08 15.96-6.34q4.89-7.26 4.89-67.08v-98.81c0-12.88 0-25.57-4.89-30.46-1.45-1.45-4.72-3.08-15.96-4.72l-1.63-1.63v-7.97l1.63-1.64c6.35 1.64 32.09 1.64 35.17 1.64 6.35 0 14.33 0 19.22 0l86.3 132.53c7.98 11.06 11.24 17.58 17.59 28.64v-78.14c0-46.23-1.63-62.19-4.72-67.08-1.63-1.63-6.52-4.71-19.21-6.35l-1.64-1.63v-7.97l1.64-1.64c7.97 1.64 22.3 1.64 28.64 1.64 3.26 0 12.87 0 27.2-1.64l1.63 1.64v7.97l-1.63 1.63c-11.06 1.64-14.33 3.27-15.96 6.35-3.08 4.89-4.71 23.93-4.71 67.08v98.99c0 14.32 0 33.36 1.63 42.97 0 0 0 0-1.63 1.63q-7.25 0-19.22 0c-4.9-15.95-17.59-38.25-31.91-59.1zm218.83-156.28c0-1.64 0-3.27-1.45-3.27v-6.34l1.45-1.63c3.26 0 17.59 0 24.11 0 6.35 0 17.59 0 23.94-1.64l1.63 1.64v7.97l-1.63 1.63c-6.35 1.64-12.88 1.64-15.96 4.72-6.53 3.26-15.95 12.87-33.54 31.91l-38.44 46.41 68.72 100.44c12.87 17.59 17.58 22.3 31.91 23.93l1.63 1.63v6.35l-1.63 1.63c-7.98 0-15.96 0-20.67 0-3.27 0-28.83 0-38.44 0-6.34-9.61-11.24-17.59-17.58-25.56l-60.74-84.49v33.54c0 49.32 0 55.84 3.26 62.19 1.64 1.63 4.72 3.08 15.96 4.71l1.63 1.63v7.98h3.08c-14.32-1.63-33.54-1.63-36.62-1.63-3.26 0-25.56 0-40.07 1.63l-1.63-1.63v-7.98l1.63-1.63c11.24-1.45 14.51-3.08 15.96-4.71 3.26-6.35 3.26-12.69 3.26-60.56v-73.42c0-47.87 0-55.85-3.26-60.74-1.45-1.63-4.72-3.08-15.96-4.71l-1.63-1.64v-7.97l1.63-1.63c12.87 1.63 36.81 1.63 40.07 1.63 3.08 0 23.93 0 36.62-1.63l1.63 1.63v7.97l-1.63 1.64c-11.06 1.63-14.32 3.08-15.95 4.71-3.08 4.89-3.08 12.87-3.08 60.74v33.35c33.54-36.62 63.81-78.14 71.79-94.09q0-2.36 0-4.71zm231.88-15.96c60.74 0 97.36 34.99 97.36 110.05 0 73.43-41.51 124.55-103.88 124.55-59.11 0-92.65-51.12-92.65-116.57 0-68.53 35.18-118.03 99.17-118.03zm0 218.65c39.89 0 55.85-39.89 55.85-97.36 0-73.43-20.67-106.97-57.48-106.97-46.41 0-57.65 47.87-57.65 102.08 0 54.39 17.59 102.25 59.28 102.25zm135.8-137.24c0-47.87 0-55.85-3.26-60.74-1.45-1.63-4.72-3.08-15.96-4.71l-1.63-1.64v-7.97l1.63-1.63c12.87 1.63 33.54 1.63 36.81 1.63 25.56 0 68.71 0 87.93-1.63v1.63c-1.64 9.61-1.64 25.56-1.64 47.86v1.63h-6.34l-1.63-1.63v-1.63c0-11.06-3.27-20.67-3.27-23.93-1.63-3.09-4.71-6.35-14.32-7.98-7.98-1.63-20.85-1.63-38.43-1.63h-3.09v87.93h6.35c20.85 0 30.28 0 35.17-4.9 1.63-1.63 3.26-3.08 4.71-12.69l1.64-9.61 1.63-1.63h6.34l1.64 1.63c0 11.06-1.64 23.94-1.64 35.18 0 9.42 0 17.4 1.64 33.36l-1.64 1.63h-6.34l-1.63-1.63v-7.98c-1.64-9.43-1.64-11.06-4.72-14.32-4.89-3.09-20.85-4.72-36.8-4.72h-3.26v33.54c0 49.32 0 55.84 3.26 62.19 1.63 1.63 6.34 3.08 17.58 4.71l1.64 1.63v7.98h-3.27c-12.69-1.63-38.25-1.63-41.51-1.63-3.27 0-23.94 0-36.81 1.63l-1.63-1.63v-7.98l1.63-1.63c11.24-1.45 14.51-3.08 15.96-4.71 3.26-6.35 3.26-12.69 3.26-60.56zm294.07 70.17h-6.35l-1.63-1.64v-9.61c-1.63-9.42-1.63-11.05-4.71-14.32-4.9-3.08-19.22-4.71-35.17-4.71h-4.9v33.54c0 22.3 0 36.62 1.63 58.92h17.59c25.56 0 43.15-3.08 49.49-9.61 4.9-3.08 6.35-15.95 9.61-30.27l1.63-1.64h6.35l1.63 1.64c-1.63 11.24-3.26 43.15-3.26 55.84v1.63c-15.96-1.63-73.43-1.63-108.6-1.63-6.35 0-14.51 0-22.48 1.63l-1.45-1.63v-4.72l1.45-1.63c4.89-1.63 7.97-4.71 9.61-4.71 1.63-1.63 3.26-25.57 3.26-62.37v-73.43c0-47.86 0-55.84-3.26-60.55-1.64-1.63-4.72-3.27-15.96-4.72l-1.63-1.63v-7.97l1.63-1.64c12.87 1.64 33.54 1.64 36.81 1.64 25.56 0 68.71 0 87.93-1.64v1.64c-1.64 9.6-1.64 25.56-1.64 47.86v1.63h-6.34l-1.63-1.63c0-11.24-3.27-22.3-3.27-25.56-1.45-3.27-4.71-6.35-14.32-6.35-9.61-1.63-20.85-1.63-38.43-1.63h-3.09v87.75h6.35c20.85 0 28.83 0 33.54-4.72 1.63-1.63 3.26-3.26 4.89-12.87l1.46-9.61 1.63-1.45h6.52l1.45 1.45c0 11.24-1.45 23.93-1.45 35.17-4.89 6.35-4.89 15.96-4.89 33.55zm87.93-38.26c0 58.92 23.93 106.79 68.71 106.79 15.96 0 23.93-3.08 27.2-9.43 1.63-3.26 1.63-6.53 1.63-17.59v-17.58c0-9.61-1.63-15.96-3.26-19.22-3.27-4.71-6.35-6.35-19.22-6.35l-1.63-1.63v-6.34l1.63-1.64c12.87 1.64 36.8 1.64 44.78 1.64 4.71 0 12.87 0 20.85-1.64l1.45 1.64v6.34 1.63l-6.35 3.27c-1.63 0-1.63 1.63-3.08 3.08-1.63 3.26-1.63 14.5-1.63 31.91 0 9.61 0 20.85 1.63 30.46v1.45c-24.11 11.24-46.41 17.58-71.97 17.58-56.03 0-102.26-42.96-102.26-114.76 0-78.32 47.87-119.84 108.6-119.84 28.83 0 51.13 6.53 62.37 12.87l1.63 1.63c-1.63 12.7-3.26 31.91-3.26 49.32l-1.63 1.63h-6.35l-1.63-1.63c0-12.69-1.63-20.67-1.63-23.93-1.45-7.98-20.67-23.94-49.5-23.94-44.78-3.08-67.08 36.81-67.08 94.28zm255.63-6.34c15.96-32.09 38.44-84.67 44.79-102.26 3.26 1.63 6.34 0 9.6 0 1.64 0 7.98 0 11.24 0l1.64 1.63v3.27c-17.59 25.38-41.7 70.16-56.03 98.81-7.97 14.5-7.97 19.21-7.97 33.54v12.87c0 47.86 0 55.84 3.26 60.55 1.45 1.64 4.71 3.27 15.96 4.72l1.63 1.63v7.98l-1.63 1.63c-12.88-1.63-35.18-1.63-38.44-1.63-3.08 0-23.93 0-36.8 1.63l-1.46-1.63v-7.98l1.46-1.63c11.24-1.45 14.5-3.08 16.13-4.72 3.08-4.71 3.08-12.69 3.08-60.55v-15.96c-1.63-6.52-7.97-22.48-19.21-44.78l-11.06-22.3c-7.98-14.32-27.2-51.12-32.09-54.21-1.45-1.63-4.72-1.63-11.06-3.26l-1.64-1.63v-6.35l1.64-1.63 49.49-3.08c4.72 4.71 9.61 11.06 17.59 28.65 11.24 19.21 25.56 49.49 39.88 76.5zm137.43-102.25c6.53 0 12.87 0 24.11 0 36.81 0 60.74 12.87 60.74 55.84 0 44.78-32.09 70.35-64 70.35-4.71 0-11.24 0-14.32 0l-1.64-9.61 1.64-1.63c1.63 0 6.34 0 7.97 0 20.67 0 31.91-20.85 31.91-49.5 0-28.65-6.34-54.21-35.17-54.21-3.08 0-7.98 0-12.69 1.63-1.63 11.06-1.63 31.91-1.63 62.19v73.43c0 49.49 0 55.84 3.08 60.55 1.63 1.63 6.53 3.26 17.59 4.9l1.63 1.45v7.97l-1.63 1.63c-14.33-1.63-38.26-1.63-41.52-1.63-3.08 0-23.93 0-36.62 1.63l-1.64-1.63v-7.97l1.64-1.45c11.05-1.64 14.32-3.27 15.95-4.9 3.08-6.35 3.08-12.69 3.08-60.55v-73.43c0-47.86 0-55.84-3.08-60.74-1.63-1.45-4.9-3.08-15.95-4.71l-1.64-1.63v-7.98l1.64-1.63c12.69 1.63 33.54 1.63 36.62 1.63 7.98 1.63 14.5 1.63 23.93 0zm259.08-670.09c0 0-9.61-78.32-14.51-97.36-4.71-19.21-14.32-35.17-14.32-35.17l-28.82 41.52c0 0 4.89 65.45 6.52 103.7 1.45 39.89 4.72 205.78 4.72 225 0 19.22 6.34 159.54 4.89 178.76-1.63 19.04-6.53 94.1-6.53 94.1 0 0 32.09-35.18 35.18-75.06 3.26-39.89 0-296.79 0-296.79l-6.35-153.02c-1.63-1.63 14.32 7.98 19.22 14.32zm-2237.62 0c0 0-9.6-78.32-14.5-97.36-4.71-19.21-14.32-35.17-14.32-35.17l-28.83 41.52c0 0 4.9 65.45 6.53 103.7 1.45 39.89 4.71 205.78 4.71 225 0 19.22 6.35 102.07 4.9 119.66-1.64 19.21-6.53 94.09-6.53 94.09 0 0 32.09-34.99 35.17-74.88 3.27-39.88 0-237.86 0-237.86l-6.34-153.02c-1.64-1.63 12.69 7.98 19.21 14.32zm1249.89 0c0 0-9.61-78.32-14.5-97.36-4.72-19.21-14.32-35.17-14.32-35.17l-28.83 41.52c0 0 4.89 65.45 6.53 103.7 1.45 39.89 3.08 180.4 4.71 199.43 0 19.22 3.26 97.36 1.63 114.95-1.63 17.59-4.89 106.97-4.89 106.97 0 0 32.09-35.18 35.17-75.06 3.26-39.89 0-221.73 0-221.73l-6.35-153.2c0 0 14.33 9.61 20.85 15.95zm858.28 11.06c0 1.63-25.56-122.74-28.83-130.72l-28.82 33.36c0 0 7.97 223.55 9.61 242.58 0 19.22 6.34 178.77 6.34 196.35 0 17.59 4.9 68.53-14.32 73.43-20.85 4.71-81.59 12.69-68.72-52.76 0 0-84.66 44.78-145.4 51.13-60.73 6.34-128 4.71-139.06-47.87 0 0-51.12 66.9-99.17 57.48-47.86-9.61-57.47-33.54-60.73-102.26-4.72-68.53-14.33-378.19-14.33-378.19l-4.89-65.27-30.28 52.58c0 0 19.22 355.89 19.22 381.46 0 25.38 15.95 36.62-48.05 68.53-63.81 31.91-115.12 59.1-175.86 60.55-60.55 1.63-95.72 1.63-127.81-31.91-31.91-33.36-28.65-97.17-17.59-124.37 0 0-27.2 20.67-38.25 71.8-11.25 51.12 27.19 98.99 65.44 121.29 38.44 22.3 121.48 15.95 183.84-6.35 62.37-20.85 131.08-39.89 166.26-102.25 0 0-12.88 95.72 65.45 106.96 78.32 11.24 97.54-63.81 97.54-63.81 0 0 4.71 54.21 83.03 63.81 78.32 9.61 198.34-71.79 198.34-71.79 0 0-8.15 67.08 44.6 71.79 54.4 6.35 86.3-67.08 87.94-121.29 1.63-54.2-4.72-331.78-4.72-346.28 0-14.32-1.63-36.62-1.63-36.62 0 0 15.95 17.58 20.85 28.64zm-188.73 443.65l-36.63 41.51c0 0 43.15 38.26 44.6 38.26 1.63 0 36.81-46.23 36.81-46.23zm-294.07-228.26l-36.81 41.52c0 0 43.15 38.43 44.78 38.43 1.64 0 36.81-46.41 36.81-46.41zm-1085.27-50.95l-36.62 41.52c0 0 43.15 38.26 44.6 38.26 1.63 0 36.8-46.24 36.8-46.24zm-1644.58 197.8l-36.8 41.52c0 0 43.15 38.26 44.78 38.26 1.63 0 36.8-46.24 36.8-46.24zm7.98 79.78l-36.8 41.51c0 0 43.15 38.26 44.78 38.26 1.63 0 36.8-46.23 36.8-46.23zm1211.46-79.78l-36.63 41.52c0 0 43.15 38.26 44.78 38.26 1.45 0 36.63-46.23 36.63-46.23zm6.52 79.77l-36.8 41.52c0 0 43.15 38.25 44.78 38.25 1.63 0 36.8-46.23 36.8-46.23zm1293.04-266.51c0 0 17.59-38.26 20.67-39.89 3.26-1.45 1.63-19.04-20.67-19.04-22.48 0-57.65 28.65-68.89 58.93-9.43 30.45-3.08 60.73 9.61 75.05 12.87 14.33 22.48 12.88 33.54 14.33 11.24 1.63 22.48 6.52 11.24 12.87-11.24 6.35-54.39 25.56-67.08 28.65-11.24 3.26-22.3 11.24-22.3 11.24 0 0 36.62 9.6 57.47 1.63 20.67-6.53 28.83-7.98 44.78-30.46 15.95-22.3 41.52-71.8 14.32-74.88-27.19-3.26-49.49-7.98-46.41-23.93 3.26-15.95 20.85-23.93 33.72-14.5zm-334.14 79.95c-28.82-38.44-81.58-27.2-81.58-27.2l-14.32-287.18c0 0 15.95 6.35 27.19 20.67 0 0-38.43-113.31-41.52-119.66l-31.91 35.18c0 0 12.7 12.69 14.33 47.86 1.63 34.99 17.58 295.16 17.58 295.16 0 0-41.51 3.08-100.8 33.54-59.1 30.28-118.21 89.38-155.01 118.02-35.17 28.65-70.35 55.85-111.86 63.82-41.52 6.35-54.39-12.69-54.39-44.6 1.63-33.54 14.5-79.77 14.5-79.77 0 0-31.91 36.62-38.44 78.14-4.71 39.89 0 89.38 59.11 103.7 59.28 14.33 113.49-49.49 143.95-79.77 31.91-28.82 84.67-86.12 124.55-105.33 40.07-19.22 97.54-33.54 115.13-33.54 0 0-3.08 51.12 23.93 78.14 27.2 27.19 52.76 17.58 64 3.26 14.32-12.69 54.39-62.19 25.56-100.44zm-27.19 73.25c-7.98 6.52-47.86-19.04-51.13-52.58 0 0 17.59 0 36.81 17.58 19.21 15.96 22.3 30.28 14.32 35zm-276.48-317.46c0 0 46.41-52.76 56.02-70.17 9.61-17.58 27.19-46.41-35.17-35.17-62.37 11.24-167.89 54.21-204.69 68.53-35.18 14.51-60.74 36.81-60.74 36.81l91.2 39.88c0 0-30.46 0-38.44 4.72-7.98 3.26 0 7.97 11.24 17.58 11.24 9.61 91.01 55.84 113.49 84.67 22.3 28.65 25.57 78.14 12.7 100.44-12.7 22.3-35.18 54.21-94.28 59.11-59.1 4.71-108.6 14.32-143.77 28.64-35.17 14.32-84.67 59.11-116.76 87.75-30.28 28.83-47.86 71.8-94.28 68.71-46.23-3.26-76.69-20.85-75.06-79.77 1.64-59.1 27.2-81.4 27.2-81.4 0 0-6.53 58.92 4.71 86.12 11.24 27.19 40.07 38.25 65.63 15.95 25.57-22.3 102.26-100.44 145.41-127.64 43.15-27.19 103.88-39.88 148.66-43.15 44.79-3.08 81.41-4.71 95.91-15.95 14.33-11.06 30.28-15.95 15.96-34.99-12.88-19.22-84.67-70.35-121.47-100.62-36.81-30.28-62.37-57.48-67.09-68.53-4.89-11.25 11.06-43.15 11.06-43.15 0 0-11.06-36.63 19.22-54.21 30.46-17.59 148.67-78.14 198.16-89.38 49.68-11.25 113.5-17.59 127.82 6.34 17.59 27.2-46.23 105.34-92.64 138.88zm-319.64 17.58c0 0 19.22-17.58 22.3-52.75 4.9-36.63-54.21-15.96-75.06 0-20.85 15.95-65.45 60.73-81.58 106.96-17.41 47.87-19.04 67.08-12.69 76.51 6.34 9.61 17.58 25.56 52.76 28.83 35.17 1.63 71.97 9.61 76.69 11.06 4.71 1.63-7.98 27.19-60.74 49.49-52.76 23.93-105.52 49.5-147.03 55.84-41.52 4.9-84.67 9.61-108.6-4.71-24.12-14.32-54.39-28.65-54.39-83.04 0-54.21 14.32-127.63 20.66-143.59 0 0-36.62 36.81-44.6 94.1-8.15 57.47-8.15 132.53 41.52 172.42 49.5 39.88 164.62 11.24 219.01-11.24 55.84-22.3 108.6-47.87 142.14-82.86 31.91-36.8 35.18-78.32 15.96-94.28-19.22-15.95-51.13-9.42-71.8-12.69-20.85-4.71-57.65-11.24-59.28-31.91 0 0 11.24-41.51 46.41-67.08 38.44-28.64 81.59-42.97 78.32-11.06zm-1214.71 0c0 0 19.21-17.58 22.48-52.75 4.71-36.63-54.39-15.96-75.24 0-20.67 15.95-65.45 60.73-81.41 106.96-17.58 47.87-19.21 67.08-12.87 76.51 6.35 9.61 19.22 25.56 52.76 28.83 35.17 1.63 71.98 9.61 76.69 11.06 4.9 1.63-7.98 27.19-60.73 49.49-52.76 23.93-105.52 49.5-147.04 55.84-41.52 4.9-84.67 9.61-108.6-4.71-24.11-14.32-54.39-28.65-54.39-83.04 0-54.21 14.32-127.63 20.67-143.59 0 0-36.62 36.81-44.6 94.1-7.98 57.47-7.98 132.53 41.52 172.42 49.49 39.88 164.62 11.24 219.01-11.24 55.84-22.3 108.6-47.87 142.14-82.86 32.09-36.8 35.17-78.32 15.95-94.28-19.03-15.95-51.12-9.42-71.79-12.69-20.85-4.71-57.66-11.24-59.29-31.91 0 0 11.24-41.51 46.42-67.08 38.43-28.64 81.58-42.97 78.32-11.06zm2335.15 103.71l6.35-41.52c0 0 238.23-127.64 420.43-165.89l-24.11 36.62c0 0-207.77 47.87-402.67 170.79zm-305.31-84.67c0-4.71 3.26-6.35 6.35-7.98 9.61-9.42 20.85-17.4 30.46-27.01 15.95-14.32 30.27-28.83 46.23-43.15 6.52-6.35 11.24-12.69 16.13-19.22 1.45-1.45 1.45-3.08 3.08-4.71-1.63 0-4.71-1.63-6.34-1.63-4.71-1.64-7.98-3.09-12.87-4.72-7.98-4.89-11.06-12.87-11.06-20.85 1.63-14.32 9.61-25.38 20.67-33.36 9.6-6.52 17.58-3.26 20.85 7.98 3.26 7.98 3.26 14.32 3.26 22.3 0 4.71 0 7.98 0 12.69 3.08 1.63 7.98 3.27 11.06 4.9 6.52 3.08 6.52 4.71 4.89 11.06-1.63 3.26-1.63 7.97-3.26 11.24 0 1.63-1.63 3.08-1.63 3.08-4.72-3.08-11.06-4.71-15.96-7.98-23.93 44.78-65.45 73.43-111.86 97.36zm105.52-126c1.63-4.72 0-11.24-1.63-15.96-3.27-4.71-6.35-6.34-12.69-3.26-1.64 1.63-3.27 1.63-3.27 3.26-3.26 3.27-3.26 6.35 1.63 9.61 4.72 3.08 11.06 4.71 15.96 6.35zm-449.08 541v1.45c-4.9 7.98-9.61 14.5-17.59 20.85-1.63 1.63-4.9 3.26-7.98 4.71-9.61 4.9-20.85-1.45-22.48-12.69 0-6.35 1.63-11.24 3.26-15.95q11.97-28.83 33.55-47.87c6.34-4.89 12.69-11.24 17.58-15.95 1.63-1.63 3.26-3.27 6.35-4.9 0 3.27-1.63 4.9-3.09 4.9-6.52 7.98-14.5 15.95-20.84 23.93-6.35 7.98-12.88 17.59-17.59 27.01-1.63 3.27-1.63 6.53-3.26 9.61 0 1.63 0 4.9 0 6.35 1.63 4.89 6.52 6.52 11.24 6.52 4.71-1.63 9.61-4.89 12.87-6.52 3.08 0 4.71 0 7.98-1.45zm-1347.43 9.43v1.63c-4.72 7.97-9.61 14.5-15.96 20.85-1.63 1.63-4.89 3.08-7.97 4.71-9.61 4.9-20.85-1.63-22.48-12.69 0-6.53 1.63-11.24 3.26-15.96q11.96-28.82 33.54-47.86c6.34-4.89 12.87-11.24 17.59-15.95 1.63-1.63 3.26-3.27 6.34-4.9 0 3.27-1.45 4.9-3.08 4.9-6.53 7.97-14.51 15.95-20.85 23.93-6.35 7.98-12.69 17.4-17.59 27.01-1.63 3.27-1.63 6.35-3.08 9.61 0 1.63 0 4.72 0 6.35 1.45 4.89 6.35 6.34 11.06 6.34 4.9-1.45 9.61-4.71 12.87-6.34 3.08 0 4.72-1.63 6.35-1.63q0-2.36 0 0zm2317.57-232.98v1.64c-4.9 7.97-9.61 14.5-17.59 20.85-1.63 1.63-4.89 3.08-7.98 4.71-9.61 4.89-20.85-1.63-22.48-12.69 0-6.35 1.63-11.24 3.27-15.96q11.96-28.82 33.54-47.86c6.34-4.9 12.87-11.24 17.58-15.95 1.63-1.64 3.27-3.27 6.35-4.9 0 3.26-1.45 4.9-3.08 4.9-6.53 7.97-14.51 15.95-20.85 23.93-6.35 7.97-12.7 17.4-17.59 27.01-1.63 3.26-1.63 6.53-3.26 9.61 0 1.63 0 4.71 0 6.35 1.63 4.89 6.52 6.52 11.24 6.52 4.89-1.63 9.61-4.89 12.87-6.52 4.71 0 6.34-1.64 7.98-1.64zm-1697.52-339.75c1.63 1.63 1.63 4.71 3.26 6.34 3.26 11.24 6.35 20.67 6.35 31.91 0 3.26 0 6.35 1.63 9.61 3.26 7.98 9.61 9.61 15.95 9.61 1.63 0 3.27-1.63 4.9-1.63 3.08-1.63 3.08-4.9 1.63-6.35-4.9-6.53-7.98-14.5-11.24-22.48-1.63-4.71-3.27-11.06-1.63-15.95 0-4.72 3.26-9.43 6.34-12.7 0 1.64 1.63 1.64 1.63 3.27 0 9.43 4.9 19.03 7.98 28.64 1.63 3.27 1.63 4.72 3.26 7.98 1.64 4.71 3.27 11.24 1.64 15.96-1.64 6.34-3.27 12.69-6.53 17.58-6.35 9.61-17.59 11.06-25.56 1.63-3.09-3.26-4.72-7.97-6.35-11.24 0 0 0 1.63-1.63 1.63-1.63 4.72-3.08 9.61-7.98 12.7-4.71 4.89-9.61 6.34-15.95 6.34-4.72 0-9.61-3.08-12.69-6.34-3.27-4.72-4.9-9.61-4.9-15.96 0-7.98 0-14.32 0-22.3 0-3.26 0-4.71-3.26-6.34-1.45 0-3.08-3.27-3.08-4.9 0-1.45 0-1.45 0-3.08 1.63-6.35 4.71-11.24 11.24-14.32 3.08-1.64 4.71-1.64 4.71 1.45 0 1.63 1.63 3.26 1.63 4.89 0 6.35 0 12.69-1.63 19.04-1.63 6.52-1.63 14.5 1.63 20.85 3.08 7.97 7.98 9.61 17.59 4.71q11.96-7.07 9.61-19.04c-1.64-6.52-1.64-14.5-4.9-20.85-1.63-6.34 0-11.05 3.26-17.58 0-1.45 1.64-3.08 3.09-3.08q-2.36 0 0 0zm-1165.04-23.94c1.63 1.64 1.63 4.72 3.26 6.35 3.08 11.24 6.35 20.67 6.35 31.91 0 3.26 0 6.34 1.63 9.61 3.08 7.98 9.43 9.61 15.95 9.61 1.63 0 3.09-1.63 4.72-1.63 3.26-1.64 3.26-4.9 1.63-6.35-4.72-6.53-7.98-14.5-11.24-22.48-1.63-4.72-3.08-11.06-1.63-15.96 0-4.71 3.26-9.42 6.52-12.69 0 1.63 1.63 1.63 1.63 3.27 0 9.42 4.72 19.03 7.98 28.64 1.45 3.27 1.45 4.72 3.08 7.98 1.64 4.71 3.27 11.24 1.64 15.95-1.64 6.35-3.27 12.69-6.35 17.59-6.35 9.61-17.59 11.06-25.56 1.63-3.27-3.26-4.9-7.98-6.35-11.24 0 0 0 1.63-1.63 1.63-1.63 4.72-3.26 9.61-7.98 12.69-4.89 4.9-9.61 6.35-16.13 6.35-4.72 0-9.43-3.08-12.69-6.35-3.27-4.71-4.9-9.61-4.9-15.95 0-7.98 0-14.32 0-22.3 0-3.26 0-4.71-3.08-6.35-1.63 0-3.26-3.26-3.26-4.89 0-1.45 0-1.45 0-3.08 1.63-6.35 4.89-11.24 11.24-14.33 3.26-1.63 4.71-1.63 4.71 1.45 0 1.64 1.63 3.27 1.63 4.9 0 6.34 0 12.69-1.63 19.04-1.45 6.52-1.45 14.5 1.63 20.85 3.26 7.97 7.98 9.6 17.59 4.71q11.96-7.07 9.61-19.04c-1.64-6.52-1.64-14.5-4.72-20.85-1.63-6.34 0-11.06 3.08-17.58 0-1.45 0-1.45 3.27-3.09q-2.36 0 0 0zm417.17 110.05q2.36-2.35 4.72-4.71c4.89-3.26 7.97-4.89 12.87-7.98 19.22-11.24 38.25-20.85 57.47-30.46 1.63-1.45 3.26-1.45 4.89-3.08q2.36-2.35 0-4.89c-1.63-1.45-4.89-1.45-6.52-1.45-12.69-1.63-27.2-1.63-41.52-1.63-9.61 0-19.22 0-27.19 0-1.64 0-3.09 0-6.35-1.64 1.63-1.63 1.63-3.26 1.63-4.71 3.08-6.53 6.35-12.87 11.06-19.22 4.9-9.61 14.5-14.32 25.75-14.32 19.03 0 39.88 0 59.1 1.63 4.71 0 9.61 1.45 14.32 3.08 3.27 0 4.72 1.63 6.35 3.27 3.26 1.63 3.26 4.71 1.63 7.97 0 1.64 0 1.64-1.63 3.09-11.06 17.58-22.3 33.54-38.26 47.86-4.89 4.89-9.61 7.98-15.95 9.61-20.85 6.34-41.7 12.87-62.37 17.58q2.36 0 0 0zm-86.3 159.55c0-1.63 1.63-3.08 1.63-6.35 3.09-12.69 6.35-23.93 9.43-36.62 1.63-6.53 4.9-11.24 9.61-15.95 1.63-1.64 4.9-4.9 7.98-4.9 3.26-1.63 4.89 0 7.97 1.63 4.9 3.27 8.16 7.98 9.61 12.69 1.64 4.9 0 9.61-3.08 14.51q-2.36 2.35-4.89 0c-1.64-1.63-1.64-1.63-3.09-3.27-1.63-1.63-1.63-3.26-3.26-3.26-3.26-3.08-6.34-3.08-9.61 1.63-3.26 4.9-4.71 9.61-6.34 14.33-3.27 9.6-4.9 19.21-6.35 28.82-1.63 6.35-3.26 12.69-6.53 19.04-1.45 1.63-1.45 3.26-3.08 4.89-1.63 1.64-3.26 1.64-3.26-1.63 0-1.63 0-4.71 0-6.34-1.63-7.98-4.72-15.96-7.98-25.57-1.63-4.71-4.71-9.61-6.34-14.32 0-1.63-1.64-3.26-3.27-4.89q-2.35-2.36-4.71 0c-3.26 3.26-6.53 1.63-7.98 1.63-4.89-1.63-7.98-4.72-11.24-9.61-1.63-1.45-1.63-4.72 0-6.35 3.26-4.71 4.71-9.61 7.98-12.69 1.63-1.63 3.26-3.26 6.34-1.63 4.9 1.63 9.61 3.26 12.88 6.35 7.97 6.34 12.69 15.95 15.95 25.56 1.63 6.34 3.26 12.69 4.71 20.67-4.71 0-4.71 1.63-3.08 1.63zm-439.65-78.14c0-1.63 1.63-3.27 1.63-6.35 3.26-12.87 6.34-23.93 9.61-36.8 1.63-6.35 4.89-11.06 9.61-15.96 1.63-1.45 4.71-4.71 7.97-4.71 3.27-1.63 4.9 0 7.98 1.63 4.9 3.08 7.98 7.98 9.61 12.69 1.63 4.9 0 9.61-3.26 14.33q-2.36 2.53-4.72 0c-1.63-1.45-1.63-1.45-3.26-3.09-1.45-1.63-1.45-3.26-3.08-3.26-3.27-3.08-6.53-3.08-9.61 1.63-3.26 4.72-4.9 9.61-6.35 14.32-3.26 9.61-4.89 19.22-6.52 28.83-1.64 6.35-3.09 12.69-6.35 19.04-1.63 1.63-1.63 3.26-3.26 4.89-1.45 1.45-3.08 1.45-3.08-1.63 0-1.63 0-4.89 0-6.34-1.64-7.98-4.9-15.96-7.98-25.57-1.63-4.89-4.9-9.61-6.53-14.32 0-1.63-1.45-3.26-3.08-4.9q-2.36-2.35-4.9 0c-3.08 3.27-6.34 1.64-7.97 1.64-4.72-1.64-7.98-4.72-11.06-9.61-1.63-1.63-1.63-4.72 0-6.35 3.08-4.71 4.71-9.61 7.97-12.69 1.46-1.63 3.09-3.26 6.35-1.63 4.71 1.63 9.61 3.08 12.69 6.34 8.16 6.35 12.87 15.96 16.14 25.57 1.45 6.34 3.08 12.69 4.71 20.67-4.71-1.64-4.71 0-3.26 1.63-1.45 0 0 0 0 0zm2678.72-110.05c0-1.63 1.63-3.26 1.63-6.53 3.26-12.69 6.53-23.93 9.61-36.62 1.63-6.35 4.89-11.24 9.61-15.96 1.63-1.63 4.71-4.71 7.97-4.71 3.27-1.63 4.9 0 7.98 1.45 4.9 3.26 7.98 7.98 9.61 12.87 1.63 4.72 0 9.61-3.26 14.33q-2.36 2.35-4.72 0c-1.63-1.64-1.63-1.64-3.26-3.27-1.45-1.45-1.45-3.08-3.08-3.08-3.27-3.26-6.53-3.26-9.61 1.63-3.27 4.72-4.9 9.43-6.35 14.33-3.26 9.6-4.89 19.03-6.52 28.64-1.45 6.53-3.09 12.87-6.35 19.22-1.63 1.63-1.63 3.26-3.26 4.71-1.45 1.63-3.09 1.63-3.09-1.45 0-1.63 0-4.89 0-6.52-1.63-7.98-4.89-15.96-7.97-25.57-1.63-4.71-4.9-9.43-6.53-14.32 0-1.63-1.45-3.08-3.08-4.71q-2.36-2.36-4.9 0c-3.08 3.08-6.34 1.63-7.97 1.63-4.72-1.63-7.98-4.9-11.06-9.61-1.63-1.63-1.63-4.9 0-6.35 3.08-4.89 4.71-9.61 7.97-12.87 1.45-1.63 3.09-3.08 6.35-1.63 4.71 1.63 9.61 3.26 12.69 6.53 8.16 6.34 12.87 15.95 16.14 25.38 1.45 6.52 3.08 12.87 4.71 20.85-4.71 0-4.71 0-3.26 1.63q-2.36 0 0 0zm-2434.15 531.21c1.63-6.35 3.27-11.06 4.9-17.41 0-1.63 1.45-1.63 3.08-3.26 15.95-4.71 32.09-9.61 48.04-15.95 30.28-9.61 60.74-19.22 92.65-27.2 33.54-9.43 68.71-17.4 102.25-27.01h1.63c0 1.63 0 1.63 0 3.08-1.63 4.9-3.26 9.61-3.26 12.87 0 1.63-1.45 3.08-4.71 3.08-35.18 9.61-70.35 17.59-105.52 28.83-39.89 11.06-78.32 23.93-118.21 36.62-6.34 1.64-12.87 4.9-19.22 6.35 0 0 0 0-1.63 0zm732.1-228.08c-27.2-20.85-75.24-12.69-75.24-12.69l-11.06-274.49 25.56 19.04-33.54-126-28.83 46.23c0 0 15.96 266.51 15.96 295.15 0 28.83-1.64 51.13-1.64 51.13 0 0-19.03 3.27-39.88 14.32-20.85 11.25-44.78 20.85-44.78 20.85 0 0 49.49-68.71 19.21-105.33-31.9-36.81-103.88-81.41-156.64-35.17-52.76 46.23-108.78 140.5-108.78 140.5 0 0-38.25-44.78-81.4-46.23-43.15-1.63-119.84 38.26-167.89 81.23-46.23 43.14-98.99 95.72-137.42 110.23-38.44 14.32-60.74 7.97-65.45-22.49-4.9-31.9 4.71-82.85 4.71-82.85 0 0-25.56 28.65-27.19 62.19-1.64 33.54 4.89 92.46 71.97 100.44 67.08 7.97 121.47-73.25 143.77-97.18 22.48-25.56 91.2-94.28 150.3-97.36 59.11-3.26 81.59 39.89 81.59 39.89l-14.51 42.97 25.57-35c0 0 28.82 22.3 116.75 20.67 87.93-1.63 180.58-58.92 196.53-66.9 15.96-7.97 36.81-12.87 36.81-12.87 0 0 0 49.5 27.19 78.14 27.2 28.83 63.82 3.26 76.69-19.04 14.33-23.93 27.2-68.71 1.64-89.38zm-231.89 30.28c-30.28 12.87-105.33 44.78-198.16 7.98 0 0 65.63-91.02 84.85-106.97 19.03-14.32 62.18-14.32 84.67 0 20.66 14.5 44.78 41.52 52.75 57.47 7.98 17.59 6.35 28.83-24.11 41.52zm207.95 47.86c-8.16 6.35-48.04-19.03-51.3-52.57 0 0 17.58 0 36.8 17.58 17.59 17.41 20.85 30.28 14.5 34.99zm-238.23-269.59v1.63c-4.71 7.98-9.6 14.32-17.58 20.67-1.63 1.63-4.72 3.26-7.98 4.71-9.61 4.9-20.85-1.45-22.3-12.69 0-6.34 1.45-11.24 3.08-15.95q11.97-28.65 33.54-47.87c6.53-4.71 12.88-11.24 17.59-15.95 1.63-1.63 3.26-3.26 6.53-4.71 0 3.08-1.64 4.71-3.27 4.71-6.34 7.98-14.32 15.95-20.85 23.93-6.34 7.98-12.69 17.59-17.58 27.2-1.45 3.08-1.45 6.34-3.08 9.42 0 1.64 0 4.9 0 6.53 1.63 4.72 6.34 6.35 11.05 6.35 4.9-1.63 9.61-4.9 12.88-6.35 4.71 0 6.34-1.63 7.97-1.63 0-1.63 0 0 0 0zm556.23 108.42v1.63c-4.89 7.98-9.6 14.32-17.58 20.67-1.63 1.63-4.9 3.26-7.98 4.89-9.61 4.72-20.85-1.63-22.48-12.87 0-6.35 1.63-11.06 3.26-15.95q11.97-28.65 33.54-47.87c6.35-4.71 12.88-11.06 17.59-15.95 1.63-1.45 3.26-3.08 6.35-4.72 0 3.27-1.45 4.72-3.09 4.72-6.52 7.98-14.5 15.95-20.85 23.93-6.34 7.98-12.69 17.59-17.58 27.19-1.63 3.27-1.63 6.35-3.08 9.61 0 1.64 0 4.72 0 6.35 1.45 4.71 6.34 6.34 11.06 6.34 4.89-1.63 9.6-4.71 12.87-6.34 4.71 0 6.34-1.63 7.97-1.63zm661.75-28.65v1.63c-4.89 7.98-9.61 14.33-17.58 20.67-1.63 1.63-4.9 3.27-8.16 4.72-9.43 4.89-20.67-1.45-22.3-12.7 0-6.34 1.63-11.24 3.26-15.95q11.97-28.65 33.54-47.86c6.35-4.72 12.69-11.24 17.59-15.96 1.63-1.63 3.08-3.26 6.34-4.71 0 3.08-1.63 4.71-3.26 4.71-6.34 7.98-14.32 15.96-20.67 23.93-6.34 7.98-12.87 17.59-17.58 27.2-1.64 3.08-1.64 6.34-3.27 9.43 0 1.63 0 4.89 0 6.52 1.63 4.72 6.35 6.35 11.24 6.35 4.72-1.63 9.61-4.9 12.69-6.35 4.9 0 6.53-1.63 8.16-1.63 0-1.63 0 0 0 0zm234.97-46.23v1.45c-4.9 7.98-9.61 14.5-17.59 20.85-1.63 1.63-4.89 3.08-8.16 4.71-9.6 4.9-20.66-1.63-22.3-12.69 0-6.34 1.64-11.24 3.27-15.95q11.96-28.83 33.54-47.86c6.34-4.9 12.69-11.25 17.58-15.96 1.64-1.63 3.09-3.26 6.35-4.89 0 3.26-1.63 4.89-3.26 4.89-6.35 7.98-14.33 15.96-20.67 23.93-6.35 7.98-12.87 17.59-17.59 27.02-1.63 3.26-1.63 6.52-3.26 9.61 0 1.63 0 4.89 0 6.34 1.63 4.9 6.34 6.53 11.24 6.53 4.71-1.63 9.61-4.9 12.69-6.53 4.9 0 6.53-1.45 8.16-1.45q0-2.54 0 0zm-1174.83 11.06c-1.63 3.26-1.63 6.35-3.26 7.98-4.72 11.24-11.06 19.21-19.04 27.19-4.9 4.72-9.61 7.98-16.14 12.69-1.45 0-3.08 1.63-3.08 1.63-1.63-1.63 0-1.63 0-1.63 3.08-3.08 4.72-4.71 7.98-7.97 6.34-6.35 11.24-12.7 17.59-20.67 1.63-3.27 3.08-4.9 4.71-7.98 1.63-1.63 1.63-4.89 0-6.35-1.63-3.26-3.08-4.89-6.35-6.52-3.26 0-6.34 0-7.97 1.63-1.64 0-1.64 1.63-3.27 1.63-1.63 0-1.63 0-1.63-1.63 1.63-6.35 3.26-12.69 8.16-17.59 4.71-4.71 11.06-4.71 15.95-4.71 4.72 1.63 6.35 3.26 7.98 7.98v1.63 12.69z"/>
	<path class="s1" d="m4041.2 321.27c0 0-41.52 46.23-164.63 43.14 0 0-12.69 196.17 164.63 312.75 177.49-116.58 164.62-312.75 164.62-312.75-123.11 3.09-164.62-43.14-164.62-43.14z"/>
	<path class="s1" d="m4460 908.5l-1.63-19.22-27.2-588.68c-1.63-28.83-3.26-51.13-3.26-51.13-7.98-34.99-35.17-46.23-35.17-46.23-54.21-17.59-129.45 27.19-129.45 27.19-22.3 12.69-39.89 17.41-39.89 17.41-30.27 11.24-55.84 12.87-78.32 11.24q-7.25-11.97-14.32-28.65c0 0-9.61-20.85-12.87-51.12 0 0-3.09-25.57 0-59.11 0 0 4.89-66.9-30.28-82.85 0 0-22.48-12.87-64-17.59 0 0-17.59-1.63-19.22 9.61 0 0-23.93-4.89-47.86-4.89 0 0-28.83-3.09-31.91 31.9 0 0 0 11.25 6.34 15.96 0 0 3.09 1.63 9.61-3.08 0 0 1.63-3.27 12.69-3.27 0 0 12.88 0 27.2 20.67 0 0 27.19 36.81-22.3 130.9 0 0-6.53 11.24-28.83 43.15-20.85 1.63-46.41 0-75.06-11.24 0 0-15.95-4.71-40.06-17.59 0 0-75.06-44.6-129.45-27.01 0 0-28.65 11.06-35.17 46.23 0 0-3.09 22.3-3.09 51.13l-27.19 588.68-1.63 19.22c0 0 0 7.98 14.32-3.26l207.77-175.5-43.15 145.22v1.63c-7.98-1.63-15.95-3.26-23.93-6.34 0 0-9.61-4.9-19.22 3.08 0 0-44.78 1.63-33.54 49.49 0 1.63 0 4.9 0 6.35-9.61-1.45-25.56 1.63-36.8 25.56-1.64 0-3.09 1.63-11.06 3.27-1.64 0-4.9 1.63-4.9 4.71 0 3.26 1.63 4.89 3.26 6.34l7.98 3.27c0 6.34 3.08 20.67 23.93 33.54-1.63 4.71-3.26 11.06 1.64 19.04 3.26 6.52 9.6 11.24 20.66 14.5h1.64c1.63 0 4.89 1.45 6.52 1.45 33.54 9.61 97.36 25.56 305.13 27.19v-7.97 4.71c207.95 0 270.14-17.4 305.31-27.01 3.27 0 4.9-1.63 6.35-1.63h1.63c9.61-3.27 17.59-7.98 20.85-14.33 3.08-6.34 1.63-14.32 1.63-19.21 20.67-12.7 23.93-27.02 23.93-33.55l7.98-3.08c3.26-1.63 3.26-3.26 3.26-6.34 0-3.27-3.26-4.9-4.89-4.9-7.98-1.63-9.61-3.08-11.24-3.08-11.06-23.93-27.02-27.2-36.63-25.56 0-1.64 0-4.9 0-6.35 11.06-48.04-33.54-49.49-33.54-49.49-9.6-7.98-19.21-3.27-19.21-3.27-7.98 1.63-15.96 4.72-23.94 6.35v-1.63l-43.15-145.04 209.23 175.49c16.13 12.7 14.5 4.72 14.5 4.72zm-52.76-47.87l-14.5-12.69-27.02-590.49-41.7 36.8 22.49 515.26-19.22-15.96-23.93-484.98-31.91 23.94 17.4 427.68-20.67-17.58-15.95-402.13-27.2 12.69c0-3.08 0-6.34 0-6.34-137.42 4.71-182.2-46.23-182.2-46.23 0 0-44.78 50.94-182.21 46.23 0 0 0 1.63 0 6.34l-27.2-12.69-15.95 402.13-20.85 17.58 17.59-427.68-31.91-23.94-23.93 484.98-19.22 15.96 22.3-515.26-41.52-36.8-27.2 590.49-14.32 12.69 25.57-612.79-41.52 17.58c3.08-44.6 28.64-55.84 35.17-57.47 51.13-11.06 119.84 28.83 119.84 28.83 22.3 12.69 38.25 17.59 38.25 17.59 30.46 11.05 56.03 12.69 76.88 11.05-3.27 4.9-7.98 11.25-12.88 17.59 0 0 25.57 3.26 56.03-17.59l-6.53 30.28c0 0 14.5-1.45 48.04-28.64l25.57 23.93 22.3-23.93c0 0 20.85 19.21 52.76 22.3 0 0 3.26-6.35 0-17.59 0 0 22.48 12.87 48.04 7.98 0 0-6.53-3.08-14.5-14.33 20.85 3.27 48.04 1.64 79.95-11.05 0 0 15.95-4.9 38.44-17.59 0 0 67.08-39.89 119.84-28.83 4.71 1.63 31.9 11.24 35.17 57.47l-41.52-17.58zm-131.08 15.95q-11.97 2.54-23.93 4.9l-30.46-41.52 22.3-68.53zm27.19-1.63c0 0 9.61-4.9 17.59 3.08 0 0 9.61 9.61 0 22.48 0 0-3.08 3.08-7.98 4.71 0 0-17.58 6.35-86.3 19.22 0 0-1.63-23.93-23.93-23.93 0 0-19.22 1.45-17.58 30.28 0 0-40.07 3.08-94.28 1.63 0 0-4.9 0-7.98-6.53 0 0-4.89-7.98-11.24-9.43 0 0-3.26-3.26 1.63-6.52 0 0 3.09-3.08 6.35-4.72 0 0 1.63-1.63 11.24-1.63 3.08-1.63 114.94 3.27 212.48-28.64zm-98.99 28.64c0 0 12.69 0 15.96 11.24 0 0 3.08 4.72 1.63 12.69 0 0 0 4.9-4.9 9.61 0 0-7.97 6.35-7.97 11.24 0 0-1.63-3.26-7.98-9.61 0 0-6.35-6.34-7.98-15.95-1.63-1.63-3.26-15.95 11.24-19.22zm143.78 14.32c3.26 3.27 3.26 7.98 1.63 12.88 0 1.63 0 3.08 1.63 4.71 1.45 1.63 3.08 1.63 6.34 1.63 6.35-1.63 20.85-4.71 31.91 20.67 0 1.63 1.64 1.63 1.64 1.63 1.63 1.63 3.26 1.63 6.34 3.27l-1.63 1.63c-1.45 1.45-3.08 3.08-3.08 4.71 0 3.27 0 15.96-22.48 30.28-1.45 1.63-3.09 4.89-1.45 6.34 1.45 1.64 3.08 7.98 0 14.51-1.64 4.71-7.98 7.98-14.51 9.43h-1.63c-1.45 0-4.71 1.63-6.35 1.63-33.54 9.61-95.9 25.56-302.04 25.56-206.14 0-268.51-17.58-302.05-25.56-3.26 0-4.71-1.63-6.35-1.63h-1.63q-11.96-2.36-14.32-9.43c-3.26-6.53 0-12.87 0-14.51 1.45-1.45 0-4.71-1.63-6.34-22.48-12.69-22.48-27.01-22.48-30.28 0-1.63-1.64-4.71-3.09-4.71l-1.63-1.63c3.08-1.64 4.72-1.64 6.35-3.27 1.63 0 1.63-1.63 1.63-1.63 11.24-23.93 25.56-22.3 31.91-20.67 1.63 0 4.89 0 6.53-1.63 1.45-1.63 1.45-3.08 1.45-4.71-1.45-4.9-1.45-9.61 1.63-12.88 4.71-4.71 14.32-7.97 25.56-7.97 12.87 3.26 57.47 12.87 95.91 19.22 0 0 0 6.34 6.34 11.24 0 0 11.25 7.97 11.25 20.66 0 0 1.63-11.24 12.87-17.58 0 0 4.71-1.63 6.34-6.35 0 0 35.18 4.72 102.26 1.63 0 0 1.63 4.72 6.34 7.98 0 0 17.59 7.98 17.59 17.59 0 0 12.87-6.53 15.95-28.83h6.53 6.35c1.63 22.3 15.95 28.83 15.95 28.83 0-9.61 17.59-17.59 17.59-17.59 4.71-3.26 6.34-7.98 6.34-7.98 68.71 3.09 102.44-1.63 102.44-1.63 3.08 4.72 6.34 6.35 6.34 6.35 11.06 6.34 12.69 17.58 12.69 17.58 0-12.69 11.24-20.66 11.24-20.66 6.35-4.9 6.35-11.24 6.35-11.24 38.44-6.35 83.22-15.96 95.91-19.22 4.89 0 14.5 3.26 19.22 7.97zm-17.59-20.66c1.63-3.27 0-9.61 0-9.61-1.63-4.72 0-7.98 0-7.98 1.63-3.08 9.61 0 9.61 0 20.85 9.61 15.95 35.17 15.95 35.17-6.34-4.89-19.22-9.61-19.22-9.61-7.97-1.63-6.34-7.97-6.34-7.97zm-588.14-17.59c0 0 7.98-3.08 9.61 0 0 0 1.63 3.26 0 7.98 0 0-1.63 6.34 0 9.61 0 0 1.63 6.34-6.53 7.97 0 0-14.32 4.72-19.04 9.61 0 0-4.89-25.56 15.96-35.17zm148.67 41.52c0 9.61-7.98 15.95-7.98 15.95-6.53 6.35-7.98 9.61-7.98 9.61-1.63-3.26-8.16-11.24-8.16-11.24-4.71-4.71-4.71-9.61-4.71-9.61-1.63-6.34 1.63-12.69 1.63-12.69 3.08-11.24 15.96-11.24 15.96-11.24 12.87 4.9 11.24 19.22 11.24 19.22zm-129.45-43.15c7.97-7.98 17.58-3.08 17.58-3.08 97.36 31.91 209.41 27.01 209.41 27.01 11.06 0 11.06 1.63 11.06 1.63 3.26 1.63 6.52 4.9 6.52 4.9 6.35 3.08 1.45 6.34 1.45 6.34-6.34 3.08-11.06 9.61-11.06 9.61-3.26 6.35-7.97 6.35-7.97 6.35-52.76 1.63-94.46-1.63-94.46-1.63 1.63-28.65-17.59-30.28-17.59-30.28-22.3 0-23.93 23.93-23.93 23.93-67.08-11.24-86.3-19.22-86.3-19.22-4.71-1.63-7.98-4.71-7.98-4.71-6.34-11.24 3.27-20.85 3.27-20.85zm76.69-106.79l22.3 68.53-30.28 41.52q-9.61-2.35-24.11-4.71zm35.17-116.58l12.87 27.2 44.78-38.44 6.35 70.35 28.83-33.54 22.3 60.55-35.18 47.86-15.95-68.53-35.17 39.89-12.69-49.5-46.42 41.52zm3.08-180.39l-4.71 167.52-19.22 62.37 11.24-287.19c3.27 17.41 6.35 36.63 12.69 57.3zm164.63 209.04c-185.29-121.29-170.97-325.44-170.97-325.44 129.45 4.71 170.97-44.78 170.97-44.78 0 0 43.33 49.49 171.14 44.78 0-1.63 14.33 202.7-171.14 325.44zm-110.24-47.87l-41.51 36.81-11.24-25.57 30.45-97.36c4.72 11.25 11.25 20.67 17.59 30.28zm279.57 6.35l-4.72-167.52c6.35-20.67 11.24-39.89 12.88-57.48l11.05 287.36zm-59.1-6.52l6.35-55.84c6.52-9.43 12.87-19.04 17.58-30.28l30.46 97.36-11.24 25.56zm-23.93 151.57l-35.17-47.86 22.3-60.56 28.82 33.36 6.35-70.16 44.78 38.25 12.87-27.01 30.28 95.73-46.23-41.52-12.87 49.49-35.18-39.88zm-36.8-39.89l35.17 47.86-11.06 50.95zm19.04-73.25l-22.3 60.56-14.32-62.19c0 0 7.97-6.34 20.66-17.58zm20.85-57.48c6.35-7.97 14.33-17.58 20.67-27.19l-4.71 41.52zm14.32 20.85l-6.34 60.55-41.52-47.86c7.97-7.98 17.58-17.59 27.19-28.65zm-188.55 157.91l35.17-47.86-22.48 98.99zm31.91-140.51c12.87 11.24 20.85 17.59 20.85 17.59l-14.32 62.19-22.48-60.56zm-52.76-23.93l-4.72-39.89c6.35 9.61 14.33 17.59 20.85 27.02zm20.67-9.43c9.61 11.06 19.22 22.3 27.2 28.64l-41.52 47.87-6.35-60.56zm-81.58 269.6c-4.72 0-19.22-3.27-39.89-6.35l25.56-35.17zm38.26-33.54l-23.93 33.54c-1.63 0-4.72 0-6.35 0l-15.95-49.5 31.91-42.96 17.58 52.57 35.17-47.86 14.33 59.1-7.98 35c-7.98 0-17.59 0-28.83-1.46zm7.98 36.63c-7.98 0-15.95-1.63-25.56-1.63l16.13-22.3zm94.28 17.58c1.45-4.89 9.61 4.72 9.61 4.72 12.69 17.58-3.27 39.88-3.27 39.88-3.26-9.61-17.58-17.58-17.58-17.58-7.98-4.72 1.63-14.33 1.63-14.33 11.06-6.34 9.61-12.69 9.61-12.69zm52.76-6.34c-9.61 1.45-14.51 4.71-17.59 9.42-6.53 0-14.5 0-20.85 0-3.26-4.71-7.98-9.42-17.58-11.06 0 0-6.35-9.6-17.59-9.6 0 0-6.35 1.63-31.91 1.63l6.35-22.3 14.32 12.69 22.48-14.32 20.67-137.25-4.72 137.25 20.85 25.56 20.67-25.56-4.71-137.25 20.67 137.25 22.48 14.32 14.32-12.69 6.35 22.3c-25.57 0-31.91-1.63-31.91-1.63-14.32 1.63-22.3 11.24-22.3 11.24zm7.98 19.03c0 0 9.6 9.61 1.45 14.33 0 0-14.33 7.97-17.59 17.58 0 0-15.96-22.3-3.08-39.88 0 0 7.97-9.61 9.61-4.72 0 0-1.64 6.35 9.61 12.69zm122.92-33.54c-1.45 0-4.72 0-6.35 0l-23.93-33.36-14.32 36.63c-11.24 0-20.85 1.63-28.83 1.63l-7.98-35.17 14.33-59.11 35.17 48.05 17.58-52.76 31.91 43.15zm20.85-43.15l25.57 35.17c-20.85 4.71-33.54 6.35-39.89 6.35zm-33.54 44.6c-9.61 1.63-17.59 1.63-25.56 1.63l9.42-23.93zm-300.41-170.79l12.87 49.5 35.17-39.89 14.33 62.19-31.91 43.14-17.59-52.57-36.8 49.49-22.48-71.97zm95.9-534.48c24.12-55.84 12.88-95.73 12.88-95.73-1.64-4.71 19.21-1.63 19.21-1.63 7.98 0 3.09-3.08 3.09-3.08-9.61-12.87-12.7-15.95-12.7-15.95-28.82-22.49-31.9-23.94-31.9-23.94-8.16-3.26-19.22-1.63-19.22-1.63-6.53 0-14.51 14.33-14.51 14.33-1.45 3.26-3.08-1.64-3.08-1.64-1.63-4.71 0-12.69 0-12.69 1.63-7.97 9.61-11.24 9.61-11.24 11.06-4.71 22.3-3.08 22.3-3.08 14.32 1.45 31.91 17.4 31.91 17.4 12.87 9.61 16.14 7.98 16.14 7.98 9.42-1.45 11.05 6.53 11.05 6.53 1.64 3.08 7.98 3.08 7.98 3.08 6.53 0 6.53-3.08 6.53-3.08 0-3.26 1.45-4.9 1.45-4.9 3.26-3.08 7.98-4.71 7.98-4.71 6.52-3.26 14.5-4.9 20.85-4.9 7.97-1.45 15.95 0 15.95 0 12.87 0 19.22 22.49 19.22 22.49 9.61 25.38 3.26 74.87 3.26 74.87 0 30.28 4.72 47.87 4.72 47.87 9.6 52.76 33.54 79.77 33.54 79.77-23.94-1.45-35.18-9.61-39.89-14.32-4.9-6.35-14.32-23.94-19.22-54.21l-7.98-57.47h-6.34l7.98 57.47c3.08 25.56 11.24 42.97 15.95 50.94 0 0 0 1.63 1.63 1.63 0 1.64 1.63 1.64 1.63 3.27 9.43 14.32 7.98 19.22 7.98 19.22-30.46-6.53-43.15-19.22-44.78-22.49l-6.35-114.76h-6.52l6.52 116.4-19.21 19.21-19.22-19.21c3.26-6.35 9.61-19.22 12.87-47.87l7.98-73.42h-6.53l-7.98 73.42c-3.08 28.65-9.6 39.89-12.69 44.6-19.21 17.59-41.51 27.2-41.51 27.2l6.34-23.93c4.72-3.27 12.69-12.69 22.3-39.89 0 0 11.24-28.65 17.59-78.14h-6.35c-6.34 49.49-17.58 76.51-17.58 76.51-12.88 33.54-22.3 36.8-22.3 36.8-30.46 15.96-46.42 15.96-46.42 15.96 46.42-47.87 55.84-83.04 55.84-83.04zm51.31-143.59c4.72 0 7.98 3.26 7.98 6.35 0 3.26-3.26 6.34-7.98 6.34-4.89 0-8.16-3.08-8.16-6.34 1.63-3.09 4.9-6.35 8.16-6.35zm207.77 717.95l-22.48 71.98-36.8-49.5-17.59 52.58-31.91-42.97 14.32-62.36 35.18 39.88 12.87-49.49z"/>
	<path class="s1" d="m3959.61 921.19c6.53-1.45 25.56-3.08 25.56-3.08 9.61 0 3.27-4.9 3.27-4.9-4.72-1.45-22.3 0-22.3 0-11.24 0-14.51 4.9-14.51 4.9 0 6.34 7.98 3.08 7.98 3.08z"/>
	<path class="s1" d="m3902.14 918.11h36.8c-1.63-1.63-4.89-7.98-17.58-7.98 0 0-17.59-1.63-19.22 7.98z"/>
	<path class="s1" d="m3767.97 887.83h6.35c0 0 11.06 1.45 15.95 4.71 0 0 9.61 4.72 9.61 0 0 0-4.89-6.34-31.91-9.61 0 0-3.26 1.64 0 4.9z"/>
	<path class="s1" d="m3819.1 902.15c0 0 6.35 0 7.98 1.63 0 0 9.61 1.45 17.59 4.72 0 0 4.71 1.63 7.97 1.63 0 0 3.08-4.9-11.24-7.98 0 0-15.95-6.34-27.19-3.26 0-1.63 0 1.63 4.89 3.26z"/>
	<path class="s1" d="m4237.73 906.87c7.97-1.64 17.58-4.72 17.58-4.72 1.63-1.63 7.98-1.63 7.98-1.63 4.89-3.26 4.89-4.71 4.89-4.71-12.87-3.27-27.19 3.08-27.19 3.08-14.32 4.89-11.24 7.98-11.24 7.98 3.26 3.26 7.98 0 7.98 0z"/>
	<path class="s1" d="m4292.12 892.54c6.34-3.26 15.95-4.71 15.95-4.71h6.35c4.89-3.26 0-4.9 0-4.9-25.57 3.27-31.91 9.61-31.91 9.61-1.64 4.72 9.61 0 9.61 0z"/>
	<path class="s1" d="m4143.45 918.11h36.8c-1.63-7.98-19.22-7.98-19.22-7.98-12.69 0-15.95 6.35-17.58 7.98z"/>
	<path class="s1" d="m4092.32 914.84c0 0-4.71 3.27 3.27 4.9 0 0 19.21 0 25.56 3.08 0 0 7.98 3.26 7.98-3.08 0 0-3.27-4.9-14.33-4.9 0 0-16.13-1.63-22.48 0z"/>
	<path class="s1" d="m3828.71 965.97c0 0-3.26 4.71-9.61 4.71 0 0-3.26 1.64 0 3.27 0 0 4.72 0 3.08 3.26 0 0-1.45 3.08-3.08 9.43 0 0-1.63 1.63-4.89 1.63l-14.33-3.08c0 0-3.26 0-1.63-3.26l7.98-20.67c0 0 0-6.53-7.98 0 0 0-3.26 1.45-6.34 3.08 0 0-6.53 1.63-1.64 4.89 0 0 4.72 0 3.27 1.45l-3.27 11.25c0 0-1.63 1.63-4.89 1.63l-7.98-1.63c0 0-1.45 0 0-3.27 0 0 1.63-9.43 1.63-11.06l11.24-28.82c0 0 1.64-9.61-3.26-7.98 0 0-1.63 1.63-4.71 3.26 0 0-1.63 1.63-3.27 1.63h-9.6c0 0-7.98-3.26-9.61 3.09 0 0 0 6.34 9.61 4.89 0 0 3.26 0 3.26-3.26 0 0 0 0 1.63-1.63 0 0 3.08-1.64 4.71 1.63 0 0 1.64 6.34-4.71 17.58 0 0-1.63 4.72-6.35 4.72 0 0-8.15-1.45-12.87 6.52 0 0-4.71 6.35-4.71 9.43 0 0 0 3.27 6.34 4.9l59.11 14.32c0 0 11.24 4.71 14.32-6.35l6.53-23.93c0 1.63-1.63-6.34-7.98-1.63zm-60.74 7.98l-9.6 1.63c0 0-3.27 0-1.64-1.63l6.35-4.72c0 0 3.26-1.63 4.89 0 1.46 0 3.09 3.09 0 4.72z"/>
	<path class="s1" d="m3767.97 950.02c0 3.26-3.26 4.71-6.52 4.71-3.08 0-6.35-1.45-6.35-4.71 0-3.27 3.27-4.9 6.35-4.9 4.89 0 6.52 1.63 6.52 4.9z"/>
	<path class="s1" d="m3771.06 994.62c0 3.26-3.09 4.89-6.35 4.89-3.26 0-6.34-1.63-6.34-4.89 0-3.09 3.08-4.72 6.34-4.72 3.26 0 6.35 1.63 6.35 4.72z"/>
	<path class="s1" d="m3783.93 997.88q0 4.71-4.9 4.71-4.71 0-4.71-4.71 0-4.71 4.71-4.71c3.27 0 4.9 3.08 4.9 4.71z"/>
	<path class="s1" d="m3811.12 1005.86c0 3.26-3.26 4.71-6.52 4.71-3.08 0-6.35-1.45-6.35-4.71 0-3.27 3.27-4.72 6.35-4.72 3.26 0 6.52 1.45 6.52 4.72z"/>
	<path class="s1" d="m3929.33 954.73c-1.63 0-1.63 1.63-1.63 1.63-3.08 3.27-9.61 3.27-9.61 3.27-3.08 3.08-1.63 4.71-1.63 4.71h1.63c3.27 0 3.27 3.26 3.27 3.26l-6.35 47.87c0 1.63-1.63 1.63-1.63 1.63h-6.35c-1.63 0-1.63-1.63-1.63-1.63v-7.98c0-4.9-1.63-3.26-1.63-3.26h-3.26-4.72c-1.63 0-1.63-1.64-1.63-1.64v-3.08c0-1.63 1.63-1.63 1.63-1.63h7.98 1.63c1.63-1.63 3.08-3.26 3.08-3.26 1.63-3.09-1.45-4.72-1.45-4.72-1.63-1.63-3.26-3.26-3.26-3.26-4.9-3.08-6.35-9.43-6.35-9.43-3.26-9.61-9.61-9.61-9.61-9.61-6.34 0-7.97 4.72-7.97 4.72-3.27 4.89-11.24 6.34-11.24 6.34-7.98 0-9.61 7.98-9.61 7.98 0 6.53 9.61 6.53 9.61 6.53 9.61-1.64 3.26 3.08 3.26 3.08-6.53 7.98-16.14 3.26-16.14 3.26-4.71-1.63-4.71-7.98-4.71-7.98-1.63-7.97-3.26-12.87-3.26-12.87-1.45-3.08-4.72 0-4.72 0 0 1.63-3.26 4.9-3.26 4.9-4.71 3.08-1.45 4.71-1.45 4.71 1.45 0 3.08 3.26 3.08 3.26v9.61c-1.63 7.98-11.24 9.43-11.24 9.43h-9.43c-4.89 3.26 0 4.9 0 4.9h14.33c4.71 0 9.61-6.35 9.61-6.35 3.08-3.26 9.6-3.26 9.6-3.26 6.35 0 9.61 1.63 9.61 1.63 7.98 4.71 12.69-1.63 12.69-1.63 4.9-6.35 6.35 0 6.35 0 0 7.97 7.98 6.34 7.98 6.34 4.89-1.63 4.89-3.08 4.89 6.35 0 12.87 17.59 9.61 17.59 9.61 9.61-1.63 9.61-15.96 9.61-15.96l6.34-54.21c3.27-3.26 0-3.26 0-3.26zm-36.8 31.91c-3.08 1.63-9.61 0-9.61 0-3.08-1.45-3.08-3.08-3.08-3.08 0-1.63 1.63-1.63 1.63-1.63 1.45 0 3.08-3.27 3.08-3.27 3.26-4.71 4.9 1.63 4.9 1.63 0 3.27 1.45 4.9 1.45 4.9 3.26 0 1.63 1.45 1.63 1.45z"/>
	<path class="s1" d="m3938.94 961.26l-4.89 47.86c0 0 0 6.35 3.26 6.35 0 0 4.89 0 6.35-1.64 0 0 1.63-3.26 1.63-7.97 0-4.72 0-17.59 3.26-35.18 0 0 0-3.08 4.71-3.08 0 0 1.64 0 1.64-1.63 0 0 0-1.63-1.64-3.26 0 0-4.71-4.72-6.34-6.35 0 0 0 0-1.63-1.63-3.09 1.63-4.72 1.63-6.35 6.53z"/>
	<path class="s1" d="m4078 994.62c0 0-1.63-1.45-4.9-1.45 0 0-1.63-1.64-7.97 3.08l-9.61 7.98c0 0-4.72 3.26-3.08 4.89 0 0 1.63 3.08 0 3.08 0 0-4.9 1.63-4.9-3.08 0 0-1.63-11.24-6.34-11.24h-38.44c0 0-6.35 1.63-7.98-3.26v-4.72c0 0 0-1.63-4.71-1.63 0 0-7.98 1.63-9.61 4.9 0 0-1.63 3.08 1.63 4.71 0 0 3.08 1.63 1.63 7.98l-1.63 4.71c0 0-1.63 3.26-3.26 3.26 0 0-4.72 0-6.35-3.26 0 0-1.63-11.06-7.98-14.32 0 0-3.26 0-6.34 3.26 0 0-4.9 4.72-1.63 9.61 0 0 6.34 6.35 3.08 15.95 0 0-3.08 7.98-12.69 9.43h-6.35c0 0-3.26 1.63 0 4.9 0 0 15.96 1.63 23.93-3.27 0 0 6.35-3.08 7.98-11.06 0 0 0-1.63 6.35-1.63l38.43 1.63c0 0 3.09 0 3.09 3.09 0 0 3.26 11.24 9.6 12.87 0 0 11.25 1.45 14.51-6.53 0 0 1.45-3.08 3.08-7.97 0 0 0-1.46 3.26-1.46h30.28c0 0 1.63 0 3.26-3.26-3.26-4.71 0-19.22-6.34-27.19zm-44.78 28.82c0 0-3.27 1.63-3.27-3.26v-6.35c0 0 1.64-1.63-3.08-1.63h-27.19c0 0-4.9 0-4.9-3.08 0 0 0-3.26 4.9-3.26h31.91c0 0 4.89 0 4.89 4.71v11.24c0-1.63 0 1.63-3.26 1.63zm36.8-11.24h-4.89c-4.72 0-3.09-1.63-3.09-1.63l3.09-4.71c1.63-1.63 3.26-1.63 3.26-1.63 1.63 1.63 3.08 6.34 3.08 6.34 0 1.63-1.45 1.63-1.45 1.63z"/>
	<path class="s1" d="m4098.67 972.32c0 3.26-3.08 4.89-6.35 4.89-3.26 0-6.34-1.63-6.34-4.89 0-3.09 3.08-4.72 6.34-4.72 4.9 0 6.35 1.63 6.35 4.72z"/>
	<path class="s1" d="m4100.3 985.19c0 3.08-3.08 4.71-6.35 4.71-3.26 0-6.34-1.63-6.34-4.71 0-3.26 3.08-4.9 6.34-4.9 3.27 0 6.35 1.64 6.35 4.9z"/>
	<path class="s1" d="m4119.52 1029.79c0 3.26-3.27 4.71-6.35 4.71-3.26 0-6.53-1.45-6.53-4.71 0-3.26 3.27-4.72 6.53-4.72 3.08 0 6.35 1.46 6.35 4.72z"/>
	<path class="s1" d="m4132.39 1028.16c0 3.26-3.26 4.89-6.53 4.89-3.08 0-6.34-1.63-6.34-4.89 0-3.09 3.26-4.72 6.34-4.72 3.27 0 6.53 3.09 6.53 4.72z"/>
	<path class="s1" d="m4153.06 997.88c0 0 1.63 1.63 4.89 3.26 0 0 4.72 1.45 4.72 7.98 0 0 1.63 4.71-4.72 11.06 0 0-3.26 3.26-7.97 4.89 0 0-3.27 1.46-3.27 3.09 0 0 0 1.63 4.72 1.63 0 0 9.6 0 20.85-12.69 0 0 6.34-4.9-1.64-20.85 0 0-4.71-9.61-9.61-12.69 0 0-1.63-1.63-3.08 1.63 0 1.45-6.52 9.43-4.89 12.69z"/>
	<path class="s1" d="m4146.71 1001.14l-3.26-14.5c0 0-1.63-3.08-3.08-1.45 0 0-4.9 3.08-7.98 6.34 0 0-3.26 1.64-1.63 3.09 0 0 6.34 1.63 6.34 14.5 0 0-3.26 3.08-7.97 3.08 0 0-11.24 1.63-11.24-6.34l-3.09-41.52c0 0-1.63-3.08-3.26-4.71 0 0-1.63 0-3.26 1.63l-4.72 4.71c0 0-1.63 1.63-1.63 3.26 0 0 1.63 1.45 3.26 1.45 0 0 1.45 0 1.45 3.27v17.58 1.64c0 0-14.32 6.34-15.95 15.95 0 0-3.08 9.43 1.63 11.06 0 0 6.35 1.63 14.32-1.63 0 0 6.53-1.45 14.51 0 0 0 19.22 1.63 22.3-1.45 3.26 0 3.26-9.61 3.26-15.96zm-35.17 7.98c0 0-1.63 1.45 0 0l-6.35 3.08c-3.26 0-1.63-1.63-1.63-1.63 1.63-3.08 4.72-3.08 4.72-3.08 4.89-1.63 3.26 1.63 3.26 1.63z"/>
	<path class="s1" d="m4324.02 999.51c0 3.08-3.08 4.72-6.34 4.72-3.26 0-6.35-3.09-4.71-6.35 0-3.26 3.08-4.71 6.34-4.71 3.26 1.45 4.71 4.71 4.71 6.34z"/>
	<path class="s1" d="m4338.53 981.93l-4.9-6.35c0 0-1.63-3.26-6.34 0 0 0-1.63 1.63-3.27 1.63 0 0-3.08 6.35-11.05 1.45 0 0-3.27-3.08-4.9-6.34 0 0-1.63-4.72-3.08-9.61 0 0 0-6.35 0-14.33 0 0 1.45-7.97-7.98-12.69 0 0-8.16-4.89-17.59-3.26 0 0-9.6 0-11.24 4.71 0 0-3.26 3.27 7.98 9.61 0 0 1.63 3.27 3.26-1.63 0 0 0-1.45 3.09-1.45h7.97c0 0 4.9 1.45 6.53 7.98v4.71c0 0 0 7.98 1.45 12.87 0 0 1.63 4.72 3.26 7.98 0 0 4.72 7.98-1.63 9.43 0 0-4.71 1.63-7.97-1.45 0 0-6.35-11.24-15.96-4.9 0 0-6.34 3.27-7.98 7.98 0 0-1.63 4.9-4.89 4.9 0 0-4.72 0-6.35-4.9 0 0-4.71-9.61-14.32-9.61 0 0-4.89 1.63-6.35-4.71l-1.63-4.72c0 0-3.26-6.52-4.89-7.97 0 0-1.63 0-4.72 1.45l-4.89 6.52c0 0-3.08 4.72 3.26 4.72 0 0 4.72 1.63 3.27 4.71 0 0-9.61 6.53-12.88 11.24 0 0 0 1.63 0 3.27v6.34c0 0 0 3.08-1.63 3.08h-4.71c0 0-3.27 0-3.27-1.45l-3.08-12.87c0 0 0-1.63-3.26-1.63 0 0-3.26 0-7.98 3.26 0 0-11.24 6.35-11.24 15.96 0 0 0 7.97 7.98 9.61 0 0 6.34 0 7.98-1.64 0 0 3.26 6.35-1.64 7.98 0 0-3.08 1.63-7.97 3.26l-3.09 1.46c0 0 0 1.63 4.72 1.63 0 0 11.24 0 17.58-7.98 0 0 1.64-1.63 1.64-4.71 0 0 0-3.27 4.71-3.27 0 0 6.53 0 12.87-1.63 0 0 7.98-1.45 11.24 1.63 0 0 1.63 1.63 3.09 4.9 0 0 0 6.34 11.24 6.34 0 0 11.24 1.63 12.87-12.87 0 0 0-7.98 4.71-6.34 0 0 3.27 0 4.72 3.26 0 0 1.63 4.71 8.15 4.71 0 0 11.06-1.63 12.7-9.61 0 0 1.63-3.08 6.34-3.08 0 0 19.22-1.63 33.54-7.98 3.27-6.34 8.16-7.97 6.53-9.6zm-84.85 23.93c0 3.26-3.08 3.26-3.08 3.26-1.63 0-4.9-1.63-4.9-1.63-3.08-1.63 0-3.26 0-3.26 7.98-1.64 7.98 0 7.98 0 1.63 0 0 1.63 0 1.63zm-12.69-15.96c1.63-4.71 7.98 0 7.98 0 4.71 3.27 1.63 4.72 1.63 4.72-3.27 3.26-6.35 1.63-6.35 1.63-4.89-3.08-3.26-6.35-3.26-6.35zm-7.98 7.98c-1.63 1.63-6.34 0-6.34 0-3.27-1.63-3.27-4.71-3.27-4.71 0-4.9 3.27-4.9 3.27-4.9 3.08 0 4.71 3.26 4.71 3.26 1.63 0 1.63 6.35 1.63 6.35zm-35.17 0v4.71c-1.63 1.64-1.63 1.64-1.63 1.64h-6.35c-4.89 0-1.63-3.09-1.63-3.09 0-3.26 4.71-4.89 4.71-4.89 6.53-1.63 4.9 1.63 4.9 1.63zm89.56-6.35c0 1.64-3.26 4.72-3.26 4.72-3.27 1.63-4.72 0-4.72 0-6.52-4.72 1.45-6.35 1.45-6.35 6.53-1.63 6.53 1.63 6.53 1.63z"/>
	<path class="s2" d="m4197.84 370.76c-116.76 4.71-156.64-39.89-156.64-39.89 0 0-38.26 44.6-156.65 39.89 0 0-12.69 185.11 156.65 296.79 167.88-111.68 156.64-296.79 156.64-296.79z"/>
	<path class="s3" d="m3884.55 370.76c0 0-7.98 132.53 89.56 239.32v-247.3c-22.48 4.72-51.12 7.98-89.56 7.98z"/>
	<path class="s4" d="m4041.2 665.92c25.56-17.59 47.86-36.62 65.44-55.84v-247.3c-47.86-11.24-65.44-31.91-65.44-31.91 0 0-17.59 20.67-65.45 31.91v247.3c17.58 19.22 39.88 38.25 65.45 55.84z"/>
</svg>