<svg xmlns="http://www.w3.org/2000/svg" width="180" height="25.747" viewBox="0 0 180 25.747"><g transform="translate(90 12.873)"><g transform="translate(-90 -12.873)"><path d="M16.818,25.124s-1.579-1.471-2-1.471-3.681,1.579-5.991,1.579S0,21.97,0,13.981,7.886,0,13.142,0c3.681,0,4.624,1.683,4.624,3.257s-.839,2.734-2.206,2.734-3.469-.947-5.572.42C7.223,8.211,6.2,10.827,6.2,14.085c0,2.734,1.471,5.991,4.308,5.991s3.05-1.263,6.2-1.263a2.5,2.5,0,0,1,2.63,2.522C19.345,22.386,19.237,23.653,16.818,25.124Z" fill="#141414"></path><path d="M42.413,9.337v16.5a1.239,1.239,0,0,0,1.263,1.155c.424,0,4.1-2.1,4.1-5.152V15.116c0-.839,2-1.579,2.734-1.579s2.1,0,2.1,2.418c0,4.2-2.1,5.256-2.1,7.886,0,1.787,2.418,3.365,4.52,3.365,1.155,0,3.153-1.367,3.153-2.206s-2.522-.839-2.522-2.418,1.787-3.889,1.787-7.57-2.734-4.624-5.256-4.624c-2,0-3.681,1.471-4.2,1.471s-.316-2.941-.316-4.94,0-3.889-1.89-3.889c-1.367,0-2.878,1.493-4.94,2.522-.632.316-1.683.735-1.683,1.787C39.155,9.233,42.413,7.866,42.413,9.337Z" transform="translate(-21.493 -1.663)" fill="#141414"></path><path d="M96.208,29.824V19.209a6.19,6.19,0,0,0-1.683-.839L92,19.949a30.992,30.992,0,0,0-4.417-2s-6.726,2.1-6.726,9.145c0,3.573,1.155,4.624,3.257,7.042L86.639,35.4l4.417-2.941,2.1,2.838,4.417-3.05v-.316ZM87.69,31.3c-2.206-2.522-1.367-4.732-1.367-6.095s2.206-4.1,2.206-4.1l2.314.947.1,7.151Z" transform="translate(-44.381 -9.852)" fill="#141414"></path><path d="M185.218,29.824V19.209a6.191,6.191,0,0,0-1.683-.839l-2.522,1.579a30.992,30.992,0,0,0-4.417-2s-6.726,2.1-6.726,9.145c0,3.573,1.155,4.624,3.257,7.042l2.522,1.263,4.417-2.941,2.1,2.838,4.417-3.05v-.316ZM176.7,31.3c-2.206-2.522-1.367-4.732-1.367-6.095s2.206-4.1,2.206-4.1l2.314.947.1,7.151Z" transform="translate(-93.235 -9.852)" fill="#141414"></path><path d="M121.98,10.469V5.4A1.577,1.577,0,0,0,120.4,3.72c-.844,0-5.675,2.418-5.991,3.05l.1,1.89a1.951,1.951,0,0,0,1.155-.212c.632-.316,1.051-.316,1.051,1.367s.1,12.091.1,13.457.42,4.2,3.366,4.2,4.308-3.573,4.308-4.1c0-1.579-2.63-.212-2.63-2.63s-.1-6.307-.1-6.939.839-.839,1.471-.839,1.051.632,1.051,3.469l2.734-1.051a11.936,11.936,0,0,0,.316-2.522c0-1.259-1.579-2.734-3.469-2.734C122.693,10.135,123.117,10.266,121.98,10.469Z" transform="translate(-62.795 -2.042)" fill="#141414"></path><path d="M153.81,23.4c-.135-.365-2.968-3.289-5.757-3.289s-7.584,2.968-7.584,9.776c0,3.014,2.283,6.9,6.262,6.9s6.808-2.968,6.808-4.2a.914.914,0,0,0-1.006-1.006c-.6,0-1.782,1.462-3.609,1.462s-2.833-2.332-2.833-2.923c0,0,7.358-5.256,7.769-5.576A3.561,3.561,0,0,0,153.81,23.4ZM145.4,27.1a4.147,4.147,0,0,1,1.967-4.295c1.051.185,1.737,1.917,1.737,1.917A18.734,18.734,0,0,1,145.4,27.1Z" transform="translate(-77.098 -11.038)" fill="#141414"></path><path d="M216.1,31.419a17.808,17.808,0,0,0,3.257,3.257s1.263-1.155,1.89-1.787,1.683-1.787,1.683-1.787-1.683-2.1-1.683-2.734-.212-10.724-.212-10.724-1.155-1.051-1.787-1.051S214,19.96,214,19.96a4.287,4.287,0,0,0,.42,1.89s1.579-.528,1.579.735.212,4.308.212,4.308a12.34,12.34,0,0,1-3.681,2.522s-.839-.316-.839-3.993a36.571,36.571,0,0,1,1.155-6.835l-3.153-2.138s-2.8,2.323-4.557,3.785c-.42.352-.42,1.4.983,1.4,1.119,0,1.823-.42,1.4.632a20.352,20.352,0,0,0-1.191,6.519c0,2.666,1.4,5.675,4.836,5.675C213.127,34.468,216.1,31.419,216.1,31.419Z" transform="translate(-112.455 -9.029)" fill="#141414"></path><path d="M275.981,20.221c-.632,0-1.263.911-1.823.911s-.632-.492-.632-.911-.14-16.679-.14-16.679a6.244,6.244,0,0,0-2.8-1.683c-.839.7-4.836,3.293-4.836,3.293a2.592,2.592,0,0,1,.28,1.331h.979c.771,0,1.263.072,1.263.559V9.218a2.273,2.273,0,0,1-.28,1.331c-1.683-1.051-3.293-1.89-3.293-1.89s-7.218,2.454-7.218,9.041c0,7.218,5.815,9.041,5.815,9.041a41.158,41.158,0,0,1,5.468-3.433c.911,1.471,2.382,2.734,3.573,2.454,4.71-1.105,4.624-4.908,4.624-4.908C276.126,20.686,276.613,20.221,275.981,20.221Zm-7.917-.487a14.186,14.186,0,0,1-3.645,2.314,7.485,7.485,0,0,1-1.051-3.925,7.614,7.614,0,0,1,2.522-5.468,5.555,5.555,0,0,1,2.242,1.263A32.4,32.4,0,0,1,268.064,19.734Z" transform="translate(-141.321 -1.021)" fill="#141414"></path><path d="M299.882,3.648s2.03-.983,2.734-1.471,1.051-.632,1.4.352a6.538,6.538,0,0,1,.42,2.522c0,.911-1.656,3.122-4.065,4.624-.559.352-.979-.771-.212-1.471a2.3,2.3,0,0,0,.771-2.035A8.477,8.477,0,0,0,299.882,3.648Z" transform="translate(-164.517 -0.986)" fill="#141414"></path><path d="M326.174,20.093c-.911,0-1.331,1.823-2.662,1.823-.492,0-.983-.28-.983-.632s.068-1.4.068-3.433a13,13,0,0,1,.492-3.573c5.887-2.8,4.484-7.778,4.277-9.321s-1.051-.559-1.823-.14-1.119.492-.979,1.331c.469,2.806-1.051,3.785-1.051,3.785.14-1.683.771-6.8.771-6.8a9.552,9.552,0,0,0-4.417-1.119c-7.5.5-9.46,10.3-9.46,10.3-6.587,2.03-6.235,4.976-6.235,6.095s1.823.559,1.823.559c1.263-2.874,3.433-2.174,3.433-2.174-1.119,5.815-1.823,6.587-2.8,6.587s-1.191-3.014-1.191-3.014c-.7-.28-3.365.559-3.365.559.492,2.174,1.962,5.116,4.624,5.116s3.853-2.522,4.557-4.065,2.174-5.535,2.174-5.535h2.522c.771,0,1.051.28,1.051.771v3.573c0,1.962.632,5.675,4.484,5.675S327.086,20.093,326.174,20.093ZM318.469,6.216c-.817,1.633-1.4,6.027-1.4,6.027l-2.522.072c.983-4.484,1.89-5.256,2.874-6.095S318.676,5.8,318.469,6.216Z" transform="translate(-165.794 -1.1)" fill="#141414"></path><path d="M355.185,22.625S361,18.84,361.42,18.56s2.382.212,4.344,3.925a12.24,12.24,0,0,0,1.191-1.611,3.636,3.636,0,0,1,3.573-2.1,6.639,6.639,0,0,1,4.417,1.89,11.245,11.245,0,0,1-1.611,2.035,10.148,10.148,0,0,1-2.522-1.051,3.745,3.745,0,0,0-1.471,3.153,15.508,15.508,0,0,1,1.89-.983c.347-.072,1.75.979,1.683,1.543s-2.454,2.035-3.153,2.662c0,0,.559,3.713,4.277,2.874a1.524,1.524,0,0,1,.212,1.051c-.14.492-2.31,1.75-3.925,3.153,0,0-2.941,1.191-5.608-4.7,0,0-3.573,3.993-6.447,5.188,0,0-.839.28-2.1-1.543,0,0-.068-.212.492-.632s3.361-2.382,3.505-4.2a12.774,12.774,0,0,0-2.242.911s-.771-.352-1.051-2.662c0,0,2.594-1.543,3.226-1.823a4.57,4.57,0,0,0-1.263-2.8,3,3,0,0,0-1.543.492,8.752,8.752,0,0,1-1.331.771A1.8,1.8,0,0,1,355.185,22.625Z" transform="translate(-194.945 -10.151)" fill="#141414"></path><g transform="translate(173.833 0.97)"><path d="M388.279,2.15a3,3,0,0,1,1.453.383,2.711,2.711,0,0,1,1.105,1.092,2.975,2.975,0,0,1,0,2.946,2.734,2.734,0,0,1-1.092,1.092,2.977,2.977,0,0,1-1.471.388,3.013,3.013,0,0,1-1.471-.388,2.745,2.745,0,0,1-1.1-1.092,2.945,2.945,0,0,1,0-2.946,2.739,2.739,0,0,1,1.105-1.092A3.085,3.085,0,0,1,388.279,2.15Zm0,.483a2.53,2.53,0,0,0-1.214.32,2.276,2.276,0,0,0-.925.911,2.506,2.506,0,0,0-.334,1.236,2.481,2.481,0,0,0,.325,1.223,2.311,2.311,0,0,0,.916.911,2.52,2.52,0,0,0,1.232.329,2.468,2.468,0,0,0,1.227-.329,2.311,2.311,0,0,0,.916-.911,2.482,2.482,0,0,0,.325-1.223,2.507,2.507,0,0,0-.334-1.236,2.249,2.249,0,0,0-.925-.911A2.513,2.513,0,0,0,388.279,2.633Zm-1.3,4.1V3.558h1.1a2.559,2.559,0,0,1,.817.09.8.8,0,0,1,.4.307.812.812,0,0,1,.149.465.846.846,0,0,1-.253.609.984.984,0,0,1-.668.289.866.866,0,0,1,.271.167,3.763,3.763,0,0,1,.469.627l.388.618h-.623l-.284-.5a2.451,2.451,0,0,0-.546-.735.711.711,0,0,0-.415-.113h-.3V6.729h-.505Zm.519-1.787h.636a1.039,1.039,0,0,0,.623-.135.43.43,0,0,0,.167-.356.413.413,0,0,0-.081-.253.46.46,0,0,0-.221-.167,1.71,1.71,0,0,0-.528-.054h-.6Z" transform="translate(-385.32 -2.15)" fill="#141414"></path></g></g></g></svg>