<?xml version="1.0" encoding="UTF-8"?>
<svg width="110px" height="98px" viewBox="0 0 110 98" version="1.1" xmlns="http://www.w3.org/2000/svg" xmlns:xlink="http://www.w3.org/1999/xlink">
    <title>6EA876A3-64E2-4D27-A95D-CB257C01E8CD</title>
    <defs>
        <polygon id="path-1" points="0 0 109.91145 0 109.91145 54.8989041 0 54.8989041"></polygon>
    </defs>
    <g id="NewDirection" stroke="none" stroke-width="1" fill="none" fill-rule="evenodd">
        <g id="1-Web" transform="translate(-100.000000, -3882.000000)">
            <g id="Footer" transform="translate(0.000000, 3525.000000)">
                <g id="logoDubaiOpera" transform="translate(100.000000, 357.000000)">
                    <g id="Group-3">
                        <mask id="mask-2" fill="#7A1F2C">
                            <use xlink:href="#path-1"></use>
                        </mask>
                        <g id="Clip-2"></g>
                        <path d="M34.8995408,19.3728767 C53.1298408,20.2054795 72.1540658,26.0978082 90.1464908,26.7969863 C108.141941,27.4967123 109.911566,22.2386301 109.911566,22.2386301 C100.946566,25.3219178 92.5153408,24.5380822 76.8543658,21.1594521 C61.1906408,17.779726 31.8258658,5.60246575 15.4386158,9.08109589 C14.8756908,9.2 14.3375158,9.33945205 13.8155658,9.49205479 C13.6252658,7.57835616 13.4456908,5.5860274 13.2795908,3.50931507 L13.2688658,3.37452055 L8.01994085,0 L8.05926585,0.491506849 C8.06641585,0.562739726 8.44949085,5.04054795 9.38751585,11.3893151 C-0.679684154,17.330137 0.0100158464,30.3632877 0.0100158464,30.3632877 C2.07636585,26.3816438 5.86366585,23.5372603 11.1791408,21.7235616 C11.3688908,22.6643836 11.5666158,23.6136986 11.7758908,24.5693151 C11.9232908,25.2419178 12.0731658,25.8994521 12.2244158,26.550411 C8.83091585,28.2717808 6.37214085,30.6126027 4.98146585,33.5953425 C4.46171585,34.7090411 3.78521585,36.9879452 3.78521585,36.9879452 C3.78521585,36.9879452 6.44254085,33.6512329 13.3175408,30.9457534 C13.6225158,32.090411 13.9357408,33.1980822 14.2547408,34.2663014 C11.3413908,35.7564384 9.22251585,37.7605479 8.01251585,40.3013699 C7.54941585,41.270137 6.95046585,43.2589041 6.95046585,43.2589041 C6.95046585,43.2589041 9.31904085,40.3457534 15.4490658,37.9860274 C15.9182158,39.3454795 16.4005658,40.630137 16.8952908,41.8391781 C14.9686408,43.0367123 13.5383658,44.549589 12.6619408,46.3893151 C12.2642908,47.2235616 11.7492158,48.9328767 11.7492158,48.9328767 C11.7492158,48.9328767 13.5603658,46.7054795 18.1850408,44.7509589 C18.7787658,45.989863 19.3914658,47.1290411 20.0203908,48.1682192 C18.4570158,49.149863 17.2912908,50.3830137 16.5782158,51.8835616 C16.2498658,52.569863 15.8274658,53.9761644 15.8274658,53.9761644 C15.8274658,53.9761644 17.4183408,52.0257534 21.4974158,50.3816438 C23.0088158,52.4252055 24.6104158,53.9328767 26.2980908,54.8989041 L26.5178158,54.4526027 C26.4804158,54.4284932 25.0435408,53.4813699 23.0869158,49.8005479 C28.3669158,48.0753425 36.9348158,47.0843836 50.0891658,50.0358904 C55.5501158,51.2624658 72.7321158,53.3610959 77.3207658,48.6109589 C75.7683908,49.3221918 72.9680658,49.9717808 67.9352908,49.7673973 C57.6832908,49.3534247 46.8411408,45.8545205 36.4563158,45.3646575 C30.3625908,45.0764384 25.3949908,45.6832877 21.8466658,47.2213699 C21.4160158,46.2391781 20.9710658,45.129589 20.5195158,43.8775342 C26.9322408,41.770137 37.3607908,40.550411 53.3932908,44.1490411 C60.0279408,45.6347945 80.9084158,48.1871233 86.4865158,42.4120548 C84.5983658,43.2780822 81.1922158,44.0682192 75.0817158,43.8191781 C62.6189908,43.3167123 49.4440158,39.0654795 36.8231658,38.4649315 C29.6211908,38.1257534 23.7031908,38.8082192 19.4175908,40.5652055 C19.0785158,39.4605479 18.7380658,38.2723288 18.4003658,36.9928767 C25.9389408,34.7912329 37.7452408,33.7336986 55.3875908,37.6931507 C63.1062908,39.4243836 87.3948408,42.3926027 93.8801658,35.6747945 C91.6864908,36.6835616 87.7240158,37.5972603 80.6127908,37.310411 C66.1205658,36.7227397 50.7986658,31.7789041 36.1133908,31.0865753 C28.5723408,30.7287671 22.2415658,31.3369863 17.4158658,32.9528767 C17.1878908,31.9408219 16.9618408,30.879726 16.7393658,29.7728767 C25.2159658,27.2643836 38.4613408,26.0750685 58.2209158,30.6013699 C66.8955158,32.5906849 94.1889908,35.9936986 101.480066,28.2876712 C99.0166158,29.4454795 94.5640908,30.4939726 86.5706658,30.1632877 C70.2832408,29.489863 53.0627408,23.820274 36.5605408,23.0224658 C28.2514158,22.6216438 21.2496408,23.2824658 15.8681658,25.0556164 C15.6286408,23.6446575 15.3959908,22.1663014 15.1691158,20.620274 C20.5912908,19.4169863 27.2102658,19.0249315 34.8995408,19.3728767" id="Fill-1" fill="#7A1F2C" mask="url(#mask-2)"></path>
                    </g>
                    <path d="M18.5922825,75.519589 C18.4044575,76.0291781 18.1448575,76.4675342 17.8192575,76.8256164 C17.4953075,77.1842466 17.1028825,77.4623288 16.6584825,77.6530137 C16.2129825,77.8434247 15.7267825,77.9406849 15.2147325,77.9406849 C14.8181825,77.9406849 14.3451825,77.8806849 13.8045325,77.7636986 L13.8045325,69.8667123 C14.0479075,69.7973973 14.2882575,69.7417808 14.5187075,69.7045205 C14.7590575,69.6675342 14.9837325,69.6483562 15.1866825,69.6483562 C15.7166075,69.6483562 16.2143575,69.7480822 16.6650825,69.9436986 C17.1155325,70.1387671 17.5093325,70.4223288 17.8335575,70.7853425 C18.1599825,71.1483562 18.4162825,71.59 18.5980575,72.099863 C18.7787325,72.6072603 18.8711325,73.1784932 18.8711325,73.7952055 C18.8711325,74.430274 18.7781825,75.010274 18.5922825,75.519589 M20.1375075,71.8067123 C19.9034825,71.2330137 19.5512075,70.740137 19.0900325,70.3426027 C18.6291325,69.9436986 18.0398075,69.6319178 17.3363575,69.4143836 C16.6359325,69.1979452 15.8046075,69.0875342 14.8674075,69.0875342 L11.1081575,69.0875342 L11.1081575,69.4360274 L11.4255075,69.4360274 C11.8371825,69.4360274 12.1009075,69.5617808 12.2131075,69.8067123 C12.3286075,70.0606849 12.3880075,70.4020548 12.3880075,70.819863 L12.3880075,78.5031507 L15.2356325,78.5031507 C16.0991325,78.5031507 16.8663825,78.3815068 17.5167575,78.1450685 C18.1657575,77.9105479 18.7190575,77.5784932 19.1538325,77.1615068 C19.5924575,76.7458904 19.9279575,76.239863 20.1507075,75.6546575 C20.3740075,75.0724658 20.4884075,74.4280822 20.4884075,73.7382192 C20.4884075,73.0294521 20.3701575,72.379589 20.1375075,71.8067123" id="Fill-4" fill="#7A1F2C"></path>
                    <path d="M28.85322,69.0876712 L28.85322,74.4323288 C28.85322,75.050137 28.805095,75.5906849 28.71187,76.0405479 C28.61837,76.4868493 28.458595,76.8619178 28.234195,77.1536986 C28.012545,77.4441096 27.71527,77.6624658 27.353645,77.8010959 C26.98762,77.9405479 26.53332,78.0115068 26.000645,78.0115068 C25.533145,78.0115068 25.137695,77.9389041 24.826945,77.7942466 C24.51537,77.6512329 24.258795,77.4432877 24.065195,77.1756164 C23.86967,76.9068493 23.72777,76.5750685 23.64362,76.1884932 C23.559195,75.8021918 23.51602,75.3542466 23.51602,74.8578082 L23.51602,70.819726 C23.51602,70.4715068 23.497045,70.1821918 23.45827,69.9586301 C23.41977,69.7326027 23.34827,69.549589 23.245695,69.419726 C23.14147,69.2863014 23.00342,69.1961644 22.83017,69.1517808 C22.662145,69.1093151 22.45232,69.0876712 22.203445,69.0876712 L20.891145,69.0876712 L20.891145,69.4358904 L21.20767,69.4358904 C21.619345,69.4358904 21.88307,69.5616438 21.99692,69.8068493 C22.11187,70.0608219 22.17127,70.4021918 22.17127,70.819726 L22.17127,74.4323288 C22.17127,75.1210959 22.230395,75.7372603 22.348645,76.2605479 C22.46772,76.7865753 22.670395,77.2309589 22.95282,77.5846575 C23.23387,77.9353425 23.61447,78.2049315 24.082245,78.3791781 C24.54947,78.5550685 25.137145,78.6432877 25.82932,78.6432877 C26.558895,78.6432877 27.16802,78.5550685 27.63937,78.3791781 C28.110995,78.2049315 28.48912,77.9353425 28.763845,77.5827397 C29.034445,77.230137 29.226395,76.7857534 29.33007,76.259726 C29.435945,75.7336986 29.48902,75.1186301 29.48902,74.4323288 L29.48902,69.0876712 L28.85322,69.0876712 Z" id="Fill-6" fill="#7A1F2C"></path>
                    <path d="M32.8294175,74.0405753 L34.1474925,74.0405753 C35.0269425,74.0405753 35.6982175,74.2104384 36.1467425,74.544137 C36.5903175,74.8759178 36.8169175,75.3619452 36.8169175,75.9901644 C36.8169175,76.6183836 36.5837175,77.1055068 36.1261175,77.4381096 C35.6630175,77.7715342 34.9975175,77.9405753 34.1474925,77.9405753 C33.9305175,77.9405753 33.7041925,77.924137 33.4756675,77.8923562 C33.2531925,77.8600274 33.0370425,77.8134521 32.8294175,77.7509863 L32.8294175,74.0405753 Z M36.1943175,72.3474247 C36.0623175,72.5786575 35.8923675,72.7764658 35.6844675,72.9323562 C35.4743675,73.0898904 35.2345675,73.2104384 34.9691925,73.2885205 C34.7038175,73.3682466 34.4263425,73.4087945 34.1474925,73.4087945 L32.8294175,73.4087945 L32.8294175,69.7827671 C32.9630675,69.7479726 33.1239425,69.7178356 33.3046175,69.6907123 C33.4987675,69.6622192 33.6860425,69.6485205 33.8625925,69.6485205 C34.1430925,69.6485205 34.4362425,69.683863 34.7362675,69.7548219 C35.0349175,69.824137 35.3085425,69.9367397 35.5521925,70.0901644 C35.7919925,70.2427671 35.9957675,70.4392055 36.1530675,70.6750959 C36.3103675,70.9090685 36.3901175,71.1967397 36.3901175,71.5285205 C36.3901175,71.843863 36.3243925,72.1194795 36.1943175,72.3474247 L36.1943175,72.3474247 Z M38.1963175,75.1178356 C38.1242675,74.8687945 37.9944675,74.6419452 37.8115925,74.4452329 C37.6295425,74.2493425 37.3834175,74.0805753 37.0822925,73.9419452 C36.8105925,73.8170137 36.4660175,73.7172877 36.0537925,73.6427671 C36.6406425,73.4290685 37.0789925,73.1463288 37.3578425,72.8022192 C37.6551175,72.4350959 37.8055425,72.0301644 37.8055425,71.5989315 C37.8055425,71.0457808 37.6721675,70.5981096 37.4076175,70.2676986 C37.1430675,69.9403014 36.8158175,69.683863 36.4275175,69.5087945 C36.0447175,69.333726 35.6187425,69.2183836 35.1674675,69.1657808 C34.7181175,69.113726 34.3036925,69.0876986 33.9335425,69.0876986 L30.2037175,69.0876986 L30.2037175,69.4359178 L30.5213425,69.4359178 C30.9313675,69.4359178 31.1970175,69.5616712 31.3094925,69.8068767 C31.4241675,70.0608493 31.4830175,70.4022192 31.4830175,70.8197534 L31.4830175,78.5030411 L34.3617175,78.5030411 C34.8052925,78.5030411 35.2659175,78.4701644 35.7303925,78.4024932 C36.1943175,78.3359178 36.6208425,78.2093425 36.9981425,78.023863 C37.3765425,77.8383836 37.6905925,77.5726301 37.9350675,77.2353699 C38.1789925,76.8964658 38.3032925,76.453726 38.3032925,75.9200274 C38.3032925,75.6348219 38.2675425,75.3646849 38.1963175,75.1178356 L38.1963175,75.1178356 Z" id="Fill-8" fill="#7A1F2C"></path>
                    <path d="M44.505505,75.1781918 L41.12218,75.1781918 L42.848355,71.1883288 L44.505505,75.1781918 Z M48.18418,78.1527123 C47.99058,78.1346301 47.82008,78.0981918 47.681755,78.0428493 C47.54233,77.9866849 47.41253,77.9042192 47.294005,77.7932603 C47.173555,77.6833973 47.06438,77.5368219 46.96648,77.355726 C46.866655,77.1729863 46.75968,76.9466849 46.64748,76.6869589 L43.518805,69.1086027 L43.510005,69.0877808 L43.040855,69.0877808 L39.051155,78.456274 L39.033005,78.5031233 L39.742505,78.5031233 L40.880455,75.8107945 L44.81708,75.8107945 L45.16358,76.7110685 C45.317305,77.1181918 45.50293,77.4494247 45.718255,77.6970959 C45.93193,77.9450411 46.15578,78.1346301 46.38073,78.2639452 C46.60513,78.3938082 46.829255,78.4779178 47.04458,78.5151781 C47.25908,78.5540822 47.44993,78.5732603 47.612455,78.5732603 C47.831905,78.5732603 48.02578,78.5488767 48.19023,78.5012055 L48.21333,78.4935342 L48.21333,78.1573699 L48.18418,78.1527123 Z" id="Fill-10" fill="#7A1F2C"></path>
                    <path d="M51.0526225,78.1528493 C50.6414975,78.1528493 50.3766725,78.0290137 50.2652975,77.7827123 C50.1492475,77.5301096 50.0898475,77.1879178 50.0898475,76.7701096 L50.0898475,69.0876438 L48.7453725,69.0876438 L48.7453725,76.7701096 C48.7453725,77.135589 48.7643475,77.4216164 48.8031225,77.6391507 C48.8399725,77.8602466 48.9122975,78.0377808 49.0151475,78.1709315 C49.1188225,78.3046301 49.2593475,78.3939452 49.4298475,78.4372329 C49.5978725,78.4805205 49.8093475,78.5029863 50.0571225,78.5029863 L51.3702475,78.5029863 L51.3702475,78.1528493 L51.0526225,78.1528493 Z" id="Fill-12" fill="#7A1F2C"></path>
                    <path d="M61.4159975,77.8523836 C61.0535475,78.0515616 60.6388475,78.1529315 60.1820725,78.1529315 C59.7244725,78.1529315 59.3094975,78.0515616 58.9459475,77.8523836 C58.5832225,77.6529315 58.2708225,77.3608767 58.0194725,76.9849863 C57.7672975,76.6071781 57.5706725,76.1444384 57.4339975,75.6071781 C57.2975975,75.0690959 57.2280225,74.4589589 57.2280225,73.7951233 C57.2280225,73.1299178 57.2975975,72.5197808 57.4339975,71.9825205 C57.5706725,71.4452603 57.7672975,70.9819726 58.0194725,70.6049863 C58.2708225,70.228 58.5832225,69.9367671 58.9459475,69.7367671 C59.3094975,69.5373151 59.7252975,69.4359452 60.1820725,69.4359452 C60.6377475,69.4359452 61.0535475,69.5373151 61.4159975,69.7367671 C61.7795475,69.9367671 62.0927725,70.228 62.3430225,70.6049863 C62.5971225,70.9819726 62.7929225,71.4452603 62.9293225,71.9825205 C63.0648975,72.5197808 63.1355725,73.1299178 63.1355725,73.7951233 C63.1355725,74.4589589 63.0648975,75.0690959 62.9293225,75.6071781 C62.7929225,76.1455342 62.5971225,76.6088219 62.3430225,76.9849863 C62.0927725,77.3608767 61.7795475,77.6529315 61.4159975,77.8523836 M64.3147725,71.8438904 C64.1096225,71.2367671 63.8112475,70.7008767 63.4267975,70.2540274 C63.0415225,69.8033425 62.5690725,69.4463562 62.0231975,69.1910137 C61.4751225,68.9343014 60.8558225,68.8036164 60.1820725,68.8036164 C59.5069475,68.8036164 58.8868225,68.9343014 58.3403975,69.1910137 C57.7931475,69.4463562 57.3209725,69.8033425 56.9367975,70.2540274 C56.5515225,70.7036164 56.2520475,71.238137 56.0479975,71.8438904 C55.8444975,72.4488219 55.7399975,73.1058082 55.7399975,73.7951233 C55.7399975,74.4937534 55.8444975,75.1523836 56.0488225,75.7537534 C56.2520475,76.3540274 56.5515225,76.8863562 56.9367975,77.3367671 C57.3209725,77.7855342 57.7931475,78.1441644 58.3403975,78.3997808 C58.8868225,78.6564932 59.5061225,78.7855342 60.1820725,78.7855342 C60.8558225,78.7855342 61.4751225,78.6564932 62.0231975,78.3997808 C62.5690725,78.1441644 63.0415225,77.7855342 63.4267975,77.3367671 C63.8112475,76.8871781 64.1096225,76.3548493 64.3139475,75.7537534 C64.5188225,75.1529315 64.6213975,74.4953973 64.6213975,73.7951233 C64.6213975,73.1038904 64.5188225,72.447726 64.3147725,71.8438904" id="Fill-14" fill="#7A1F2C"></path>
                    <path d="M67.6929275,69.7827671 C67.8260275,69.7479726 67.9869025,69.7178356 68.1678525,69.6907123 C68.3628275,69.6622192 68.5495525,69.6485205 68.7252775,69.6485205 C68.9191525,69.6485205 69.1430025,69.6863288 69.3916025,69.7611233 C69.6377275,69.8353699 69.8767025,69.9619452 70.1000025,70.1370137 C70.3213775,70.313726 70.5127775,70.5460548 70.6665025,70.8285205 C70.8191275,71.1120822 70.8969525,71.4655068 70.8969525,71.8830411 C70.8969525,72.2989315 70.8191275,72.6534521 70.6665025,72.9375616 C70.5127775,73.2192055 70.3213775,73.4515342 70.1000025,73.6271507 C69.8758775,73.8033151 69.6377275,73.9296164 69.3916025,74.004137 C69.1463025,74.0786575 68.9216275,74.1159178 68.7252775,74.1159178 C68.5479025,74.1159178 68.3595275,74.1022192 68.1678525,74.074274 C67.9869025,74.0474247 67.8260275,74.0172877 67.6929275,73.9816712 L67.6929275,69.7827671 Z M71.9953025,70.4186575 C71.7370775,70.0383836 71.4175275,69.7471507 71.0449025,69.5512603 C70.6739275,69.3581096 70.2776525,69.2296164 69.8676275,69.1726301 C69.4617275,69.1161918 69.1009275,69.0876986 68.7959525,69.0876986 L65.0680525,69.0876986 L65.0680525,69.4359178 L65.3840275,69.4359178 C65.7951525,69.4359178 66.0602525,69.5616712 66.1721775,69.8068767 C66.2876775,70.0608493 66.3465275,70.4022192 66.3465275,70.8197534 L66.3465275,78.5030411 L67.6929275,78.5030411 L67.6929275,74.6772877 L69.2249525,74.6772877 C69.3566775,74.6772877 69.5291025,74.6660548 69.7326025,74.6419452 C69.9363775,74.6183836 70.1563775,74.5759178 70.3909525,74.5129041 C70.6244275,74.4512603 70.8612025,74.3586575 71.0957775,74.233726 C71.3284275,74.1118082 71.5451275,73.9476986 71.7359775,73.7468767 C71.9276525,73.5457808 72.0860525,73.2981096 72.2043025,73.0068767 C72.3244775,72.7164658 72.3849775,72.3622192 72.3849775,71.9531781 C72.3849775,71.3181096 72.2538025,70.8008493 71.9953025,70.4186575 L71.9953025,70.4186575 Z" id="Fill-16" fill="#7A1F2C"></path>
                    <path d="M80.178835,76.3064658 L80.169485,76.3333151 C79.95471,76.8894795 79.66046,77.2908493 79.294435,77.5212603 C78.926485,77.7524932 78.418285,77.8705753 77.781935,77.8705753 L75.327285,77.8705753 L75.327285,73.9694795 L79.16656,73.9694795 L79.16656,73.3368767 L75.327285,73.3368767 L75.327285,69.7201644 L77.938135,69.7201644 C78.49776,69.7201644 78.93171,69.8486575 79.232835,70.1015342 C79.531485,70.353589 79.68356,70.7618082 79.68356,71.3163288 L79.68356,71.3483836 L80.034735,71.3483836 L80.034735,70.253863 C80.034735,70.1103014 80.01631,69.9670137 79.98276,69.8278356 C79.94756,69.6864658 79.884035,69.5598904 79.791085,69.4524932 C79.699235,69.3470137 79.570535,69.2582466 79.40966,69.1889315 C79.249885,69.1223562 79.040885,69.0875616 78.79256,69.0875616 L72.70351,69.0875616 L72.70351,69.4360548 L73.020585,69.4360548 C73.429785,69.4360548 73.69516,69.5618082 73.808185,69.8067397 C73.923685,70.0607123 73.983085,70.4020822 73.983085,70.8198904 L73.983085,78.5031781 L78.920435,78.5031781 C79.21001,78.5031781 79.450085,78.4355068 79.629385,78.3045479 C79.809235,78.173589 79.93876,77.9933151 80.01796,77.7716712 L80.51461,76.4267397 L80.52726,76.3913973 L80.178835,76.3064658 Z" id="Fill-18" fill="#7A1F2C"></path>
                    <path d="M83.7162425,69.7827671 C83.8509925,69.7479726 84.0099425,69.7178356 84.1917175,69.6907123 C84.3866925,69.6622192 84.5745175,69.6485205 84.7502425,69.6485205 C84.9438425,69.6485205 85.1676925,69.6863288 85.4149175,69.7611233 C85.6626925,69.8353699 85.9008425,69.9534521 86.1235925,70.1101644 C86.3455175,70.2671507 86.5385675,70.4783836 86.6914675,70.7372877 C86.8424425,70.9967397 86.9210925,71.3101644 86.9210925,71.6707123 C86.9210925,72.0216712 86.8446425,72.3224932 86.6914675,72.5666027 C86.5388425,72.8109863 86.3468925,73.0129041 86.1255175,73.1655068 C85.9008425,73.3186575 85.6626925,73.434 85.4149175,73.5087945 C85.1679675,73.5822192 84.9438425,73.6213973 84.7502425,73.6213973 C84.5745175,73.6213973 84.3866925,73.6063288 84.1917175,73.5786575 C84.0099425,73.5529041 83.8509925,73.5200274 83.7162425,73.4871507 L83.7162425,69.7827671 Z M89.5157175,78.1529041 C89.3408175,78.1345479 89.1760925,78.0983836 89.0267675,78.0427671 C88.8788175,77.9866027 88.7292175,77.8964658 88.5812675,77.7715342 C88.4322175,77.6452329 88.2779425,77.4824932 88.1239425,77.2882466 C87.9691175,77.0907123 87.7997175,76.8403014 87.6212425,76.5413973 L86.1521925,74.0994795 C86.3867675,74.044137 86.6337175,73.9660548 86.8861675,73.8682466 C87.1573175,73.7649589 87.4092175,73.6167397 87.6355425,73.4304384 C87.8607675,73.244411 88.0474925,73.004411 88.1915925,72.7192055 C88.3354175,72.4331781 88.4080175,72.0805753 88.4080175,71.6707123 C88.4080175,71.0989315 88.2771175,70.6370137 88.0180675,70.2972877 C87.7603925,69.9594795 87.4394675,69.6970137 87.0684925,69.5156438 C86.6966925,69.3364658 86.3009675,69.2183836 85.8903925,69.1657808 C85.4833925,69.113726 85.1247925,69.0876986 84.8209175,69.0876986 L81.0921925,69.0876986 L81.0921925,69.4359178 L81.4087175,69.4359178 C81.8190175,69.4359178 82.0832925,69.5616712 82.1968675,69.8068767 C82.3115425,70.0608493 82.3714925,70.4022192 82.3714925,70.8197534 L82.3714925,78.5030411 L83.7162425,78.5030411 L83.7162425,74.1819452 L84.6603175,74.1819452 L86.0721675,76.5731781 C86.3009675,76.964137 86.5182175,77.2915342 86.7206175,77.554 C86.9249425,77.8194795 87.1306425,78.0350959 87.3308425,78.1981096 C87.5326925,78.3600274 87.7438925,78.4770137 87.9600425,78.543863 C88.1767425,78.6104384 88.4113175,78.6433151 88.6590925,78.6433151 C88.8397675,78.6433151 89.0110925,78.6296164 89.1703175,78.6011233 C89.3311925,78.5715342 89.4483425,78.5386575 89.5278175,78.4986575 L89.5459675,78.4898904 L89.5459675,78.1572877 L89.5157175,78.1529041 Z" id="Fill-20" fill="#7A1F2C"></path>
                    <path d="M95.0949175,75.1781918 L91.7099425,75.1781918 L93.4372175,71.1883288 L95.0949175,75.1781918 Z M98.7722175,78.1527123 C98.5783425,78.1346301 98.4092175,78.0981918 98.2700675,78.0428493 C98.1311925,77.9866849 98.0016675,77.9042192 97.8820425,77.7932603 C97.7615925,77.6833973 97.6521425,77.5368219 97.5536925,77.355726 C97.4541425,77.1729863 97.3474425,76.9466849 97.2352425,76.6869589 L94.1076675,69.1086027 L94.0983175,69.0877808 L93.6286175,69.0877808 L89.6386425,78.456274 L89.6199425,78.5031233 L90.3305425,78.5031233 L91.4687675,75.8107945 L95.4059425,75.8107945 L95.7521675,76.7110685 C95.9045175,77.1181918 96.0904175,77.4494247 96.3065675,77.6970959 C96.5205175,77.9450411 96.7435425,78.1346301 96.9682175,78.2639452 C97.1937175,78.3938082 97.4170175,78.4779178 97.6328925,78.5151781 C97.8473925,78.5540822 98.0390675,78.5732603 98.2007675,78.5732603 C98.4207675,78.5732603 98.6143675,78.5488767 98.7785425,78.5012055 L98.8013675,78.4935342 L98.8013675,78.1573699 L98.7722175,78.1527123 Z" id="Fill-22" fill="#7A1F2C"></path>
                    <g id="logoEmaar" transform="translate(38.000000, 91.000000)" fill="#7A1F2C">
                        <path d="M6.71228256,0.00695007483 L9.48999747,5.29722355 L12.267709,0.00695007483 L12.560108,0.00695007483 L13.3419308,5.66425165 C13.4182054,6.22745062 13.4754141,6.39198062 13.6343185,6.73369683 L12.204145,6.73369683 L12.204145,6.72736875 C12.267709,6.39830875 12.267709,5.93003092 12.2168668,5.54401787 L11.7846293,2.37365071 L9.43914738,6.72104067 L8.99420377,6.72104067 L6.61058126,2.17748051 L6.14656956,5.61362707 C6.09571835,6.01229593 6.08300555,6.51221406 6.12114395,6.72104067 L5.29482185,6.72104067 C5.45372965,6.37932448 5.49822334,6.22745062 5.57450015,5.66425165 L6.32454655,0.00695007483 L6.71228256,0.00695007483 Z" id="Clip-2"></path>
                        <path d="M4.71639493,0.00695007483 L4.72275133,0.690382598 C4.63376283,0.652414503 4.56384354,0.620773856 4.50028064,0.595461792 C4.32865893,0.532180499 4.10618824,0.46890034 3.87100363,0.46890034 L1.28397851,0.46890034 L1.28397851,3.10137991 L4.31594724,3.10137991 L4.16975113,3.62028289 L1.28397851,3.62028289 L1.28397851,6.25909104 L4.01719974,6.25909104 C4.48121144,6.26541906 4.93251034,6.00596791 4.93251034,6.00596791 L4.93251034,6.05659249 L4.83080904,6.72736875 L0,6.72736875 C0.190251505,6.28134836 0.184960833,6.02410188 0.184369738,5.70501564 L0.184333512,1.06373951 C0.184333512,0.741006726 0.197046202,0.456243174 0,0.00695007483 L4.71639493,0.00695007483 Z" id="Mask"></path>
                        <path d="M32.8304378,1.84842029 C32.8304378,2.86724162 32.0231827,3.41778411 31.0697337,3.55700159 L30.7837012,3.58231366 C30.7837012,3.58231366 33.8665167,6.60080719 34,6.73369683 L32.6333905,6.73369683 C31.965974,6.11987333 31.0951548,5.30987958 30.0082225,4.01895186 C29.6967689,3.65825098 29.4742893,3.60762685 29.3344507,3.60129827 L29.3345133,5.73784333 C29.3353577,6.03723202 29.3476019,6.29727766 29.5251427,6.72736875 L28.0504711,6.72736875 C28.2407237,6.28134836 28.235435,6.02410188 28.234844,5.70501564 L28.2348078,1.05741092 C28.2348078,0.734679277 28.2475184,0.449915725 28.0504711,0.00062262566 L29.4997216,0.00062262566 C30.4913023,0.00062262566 32.8304378,-0.0879707311 32.8304378,1.84842029 Z M29.340806,0.399290464 L29.340806,3.26591059 C29.340806,3.26591059 30.5230899,3.32919075 30.8536205,3.18997327 C30.8726864,3.18364469 30.8853969,3.17731724 30.8853969,3.17731724 C31.5083153,2.94317781 31.7180732,2.34833865 31.6990074,1.84842029 C31.6799415,1.36748654 31.4638283,0.31702569 29.340806,0.399290464 Z" id="Mask"></path>
                        <path d="M24.4083012,0.00695007483 L26.9699052,5.63261134 C27.2432271,6.18315406 27.370344,6.35401219 27.7644386,6.73369683 L26.2834117,6.73369683 L25.1710582,4.27207476 L22.9272743,4.27207476 L21.8276314,6.73369683 L20.950457,6.73369683 C21.2237789,6.38565261 21.3191193,6.22745062 21.5161666,5.79714134 L24.1159135,0.00695007483 L24.4083012,0.00695007483 Z M24.0332724,1.79146757 L23.1370322,3.79746847 L24.9485897,3.79746847 L24.0332724,1.79146757 Z" id="Clip-11"></path>
                        <path d="M17.390917,0.00695007483 L19.9461545,5.63261134 C20.2194764,6.18315406 20.3529597,6.35401219 20.7406991,6.73369683 L19.2596721,6.73369683 L18.1473187,4.27207476 L15.9035348,4.27207476 L14.8038919,6.73369683 L13.9267175,6.73369683 C14.2063946,6.38565261 14.3017351,6.22745062 14.4987824,5.79714134 L17.0985181,0.00695007483 L17.390917,0.00695007483 Z M17.0158882,1.79146757 L16.1196479,3.79746847 L17.9312055,3.79746847 L17.0158882,1.79146757 Z" id="Clip-14"></path>
                    </g>
                </g>
            </g>
        </g>
    </g>
</svg>